<svg xmlns="http://www.w3.org/2000/svg" xmlns:xlink="http://www.w3.org/1999/xlink" width="601" zoomAndPan="magnify" viewBox="0 0 450.75 231.75" height="309" preserveAspectRatio="xMidYMid meet" version="1.0"><defs><g/><clipPath id="1a0b0486e0"><path d="M 35.644531 72.96875 L 125.625 72.96875 L 125.625 162.949219 L 35.644531 162.949219 Z M 35.644531 72.96875 " clip-rule="nonzero"/></clipPath><clipPath id="52f19409f4"><path d="M 80.632812 72.96875 C 55.789062 72.96875 35.644531 93.113281 35.644531 117.960938 C 35.644531 142.808594 55.789062 162.949219 80.632812 162.949219 C 105.480469 162.949219 125.625 142.808594 125.625 117.960938 C 125.625 93.113281 105.480469 72.96875 80.632812 72.96875 Z M 80.632812 72.96875 " clip-rule="nonzero"/></clipPath><clipPath id="f9dd5bfb92"><path d="M 0.644531 0.96875 L 90.625 0.96875 L 90.625 90.949219 L 0.644531 90.949219 Z M 0.644531 0.96875 " clip-rule="nonzero"/></clipPath><clipPath id="33008222bb"><path d="M 45.632812 0.96875 C 20.789062 0.96875 0.644531 21.113281 0.644531 45.960938 C 0.644531 70.808594 20.789062 90.949219 45.632812 90.949219 C 70.480469 90.949219 90.625 70.808594 90.625 45.960938 C 90.625 21.113281 70.480469 0.96875 45.632812 0.96875 Z M 45.632812 0.96875 " clip-rule="nonzero"/></clipPath><clipPath id="ef2ef2d8f0"><rect x="0" width="91" y="0" height="91"/></clipPath><clipPath id="1b29d7cd00"><path d="M 208 10 L 294.382812 10 L 294.382812 110 L 208 110 Z M 208 10 " clip-rule="nonzero"/></clipPath><clipPath id="17f53cebf6"><rect x="0" width="295" y="0" height="120"/></clipPath></defs><g clip-path="url(#1a0b0486e0)"><g clip-path="url(#52f19409f4)"><g transform="matrix(1, 0, 0, 1, 35, 72)"><g clip-path="url(#ef2ef2d8f0)"><g clip-path="url(#f9dd5bfb92)"><g clip-path="url(#33008222bb)"><path fill="#f9f9f9" d="M 0.644531 0.96875 L 90.625 0.96875 L 90.625 90.949219 L 0.644531 90.949219 Z M 0.644531 0.96875 " fill-opacity="1" fill-rule="nonzero"/></g></g></g></g></g></g><g fill="#f9f9f9" fill-opacity="1"><g transform="translate(32.577856, 166.178915)"><g><path d="M 22.332031 19.175781 C 12.96875 19.175781 5.203125 16.554688 -0.972656 11.304688 C -6.96875 6.210938 -10.910156 -1.09375 -12.796875 -10.609375 C -14.089844 -17.140625 -14.738281 -25.488281 -14.738281 -35.648438 C -14.738281 -48.484375 -13.726562 -59.660156 -11.707031 -69.183594 C -9.4375 -79.867188 -5.886719 -88.671875 -1.058594 -95.589844 C 5.425781 -104.972656 13.996094 -111.648438 24.644531 -115.617188 C 33.769531 -119.015625 43.496094 -120.714844 53.820312 -120.714844 C 71.515625 -120.714844 85.160156 -116.28125 94.753906 -107.417969 C 99.769531 -102.78125 103.546875 -97.378906 106.09375 -91.210938 C 108.535156 -85.289062 109.757812 -78.835938 109.757812 -71.851562 C 109.757812 -62.371094 107.382812 -54.046875 102.632812 -46.882812 C 97.988281 -39.871094 91.703125 -34.558594 83.78125 -30.945312 C 76.789062 -27.753906 68.972656 -26.03125 60.328125 -25.773438 L 59.785156 -43.972656 L 77.992188 -43.972656 L 77.992188 -43.417969 L 59.785156 -43.417969 L 65.070312 -60.839844 C 79.105469 -56.582031 89.527344 -51.21875 96.328125 -44.75 C 100.273438 -41 103.3125 -36.9375 105.449219 -32.554688 C 107.859375 -27.621094 109.0625 -22.453125 109.0625 -17.0625 C 109.0625 -12.125 108.175781 -7.539062 106.402344 -3.304688 C 104.503906 1.234375 101.6875 5.160156 97.960938 8.476562 C 91.179688 14.5 82.617188 17.511719 72.269531 17.511719 C 64.160156 17.511719 56.777344 15.363281 50.117188 11.066406 C 44.03125 7.132812 38.566406 1.027344 33.730469 -7.253906 C 29.867188 -13.871094 25.773438 -22.761719 21.445312 -33.925781 L 38.421875 -40.503906 L 38.421875 -22.296875 L 37.867188 -22.296875 L 37.867188 -40.503906 L 55.476562 -45.136719 C 56.136719 -42.625 56.679688 -39.734375 57.101562 -36.464844 C 57.460938 -33.71875 57.765625 -30.902344 58.015625 -28.015625 C 58.292969 -24.851562 58.433594 -21.847656 58.433594 -19.003906 C 58.433594 -8.339844 55.800781 0.351562 50.535156 7.070312 C 47.074219 11.484375 42.578125 14.714844 37.042969 16.761719 C 32.691406 18.371094 27.789062 19.175781 22.332031 19.175781 Z M 22.332031 -17.234375 C 23.050781 -17.234375 23.65625 -17.273438 24.140625 -17.347656 C 24.273438 -17.367188 24.382812 -17.386719 24.464844 -17.410156 C 24.476562 -17.410156 24.480469 -17.414062 24.480469 -17.414062 C 24.460938 -17.40625 24.4375 -17.398438 24.40625 -17.386719 C 23.496094 -17.050781 22.652344 -16.386719 21.875 -15.394531 C 21.730469 -15.207031 21.625 -15.046875 21.554688 -14.902344 C 21.574219 -14.941406 21.605469 -15.042969 21.648438 -15.199219 C 21.894531 -16.113281 22.019531 -17.382812 22.019531 -19.003906 C 22.019531 -20.785156 21.925781 -22.726562 21.742188 -24.832031 C 21.535156 -27.21875 21.285156 -29.535156 20.992188 -31.78125 C 20.769531 -33.503906 20.523438 -34.867188 20.261719 -35.871094 L 14.25 -58.710938 L 50.894531 -58.710938 L 55.402344 -47.082031 C 59.027344 -37.71875 62.285156 -30.5625 65.171875 -25.617188 C 66.296875 -23.695312 67.371094 -22.140625 68.398438 -20.953125 C 69.015625 -20.234375 69.503906 -19.761719 69.867188 -19.527344 C 70.515625 -19.109375 71.316406 -18.898438 72.269531 -18.898438 C 73.203125 -18.898438 73.886719 -18.96875 74.316406 -19.109375 C 74.175781 -19.066406 73.992188 -18.941406 73.765625 -18.738281 C 73.367188 -18.382812 73.046875 -17.925781 72.8125 -17.363281 C 72.730469 -17.160156 72.671875 -16.984375 72.644531 -16.828125 L 72.640625 -16.828125 C 72.648438 -16.890625 72.648438 -16.96875 72.648438 -17.0625 C 72.648438 -16.847656 72.675781 -16.6875 72.726562 -16.585938 C 72.507812 -17.035156 72.007812 -17.628906 71.234375 -18.363281 C 70.210938 -19.335938 68.527344 -20.402344 66.179688 -21.5625 C 63.078125 -23.097656 59.183594 -24.574219 54.5 -25.992188 L 41.578125 -29.914062 L 41.578125 -61.644531 L 59.242188 -62.171875 C 62.988281 -62.28125 66.128906 -62.917969 68.664062 -64.074219 C 70.269531 -64.804688 71.472656 -65.78125 72.285156 -67 C 72.992188 -68.066406 73.34375 -69.683594 73.34375 -71.851562 C 73.34375 -74.027344 73.039062 -75.851562 72.429688 -77.324219 C 71.925781 -78.554688 71.125 -79.671875 70.039062 -80.675781 C 69.066406 -81.578125 67.554688 -82.328125 65.503906 -82.9375 C 62.429688 -83.847656 58.535156 -84.300781 53.820312 -84.300781 C 47.871094 -84.300781 42.382812 -83.367188 37.359375 -81.496094 C 33.859375 -80.191406 31.007812 -77.941406 28.800781 -74.746094 C 26.789062 -71.867188 25.160156 -67.492188 23.914062 -61.621094 C 22.421875 -54.59375 21.675781 -45.933594 21.675781 -35.648438 C 21.675781 -27.871094 22.089844 -21.882812 22.921875 -17.691406 C 23.136719 -16.597656 23.367188 -15.8125 23.605469 -15.332031 C 23.453125 -15.636719 23.121094 -16.003906 22.609375 -16.4375 C 22.09375 -16.878906 21.597656 -17.171875 21.125 -17.316406 C 21.300781 -17.261719 21.703125 -17.234375 22.332031 -17.234375 Z M 49.660156 -79.796875 C 49.71875 -79.796875 49.761719 -79.796875 49.785156 -79.796875 C 49.742188 -79.792969 49.683594 -79.785156 49.609375 -79.773438 C 49.257812 -79.707031 48.878906 -79.585938 48.464844 -79.410156 C 47.117188 -78.828125 45.953125 -77.855469 44.96875 -76.496094 C 43.632812 -74.652344 42.964844 -72.640625 42.964844 -70.464844 C 42.964844 -70.101562 43.054688 -69.652344 43.226562 -69.117188 C 43.511719 -68.253906 43.949219 -67.460938 44.542969 -66.742188 C 45.742188 -65.28125 47.167969 -64.238281 48.820312 -63.613281 C 49.292969 -63.433594 49.734375 -63.3125 50.140625 -63.25 C 50.238281 -63.234375 50.320312 -63.222656 50.386719 -63.21875 C 50.398438 -63.21875 50.402344 -63.21875 50.40625 -63.21875 C 50.390625 -63.21875 50.375 -63.21875 50.351562 -63.21875 C 50.296875 -63.21875 50.253906 -63.214844 50.234375 -63.214844 C 50.277344 -63.21875 50.332031 -63.226562 50.402344 -63.242188 C 50.71875 -63.304688 51.058594 -63.421875 51.417969 -63.585938 C 52.449219 -64.066406 53.390625 -64.902344 54.242188 -66.101562 C 55.464844 -67.824219 56.074219 -69.789062 56.074219 -71.992188 C 56.074219 -72.894531 55.867188 -73.839844 55.453125 -74.832031 C 54.96875 -76.003906 54.285156 -76.996094 53.414062 -77.8125 C 52.53125 -78.636719 51.566406 -79.222656 50.515625 -79.574219 C 50.214844 -79.675781 49.9375 -79.746094 49.691406 -79.78125 Z M 49.660156 -43.382812 C 45.824219 -43.382812 42.246094 -43.941406 38.917969 -45.058594 C 34.980469 -46.382812 31.53125 -48.425781 28.566406 -51.191406 C 25.613281 -53.949219 23.371094 -57.160156 21.84375 -60.828125 C 20.390625 -64.316406 19.660156 -68.039062 19.660156 -71.992188 C 19.660156 -77.527344 21.289062 -82.585938 24.546875 -87.175781 C 27.429688 -91.242188 31.285156 -94.390625 36.109375 -96.625 C 40.433594 -98.628906 45.179688 -99.632812 50.351562 -99.632812 C 54.46875 -99.632812 58.25 -98.980469 61.699219 -97.675781 C 66.101562 -96.007812 69.757812 -93.40625 72.667969 -89.867188 C 77.140625 -84.425781 79.378906 -77.960938 79.378906 -70.464844 C 79.378906 -64.777344 77.738281 -59.667969 74.460938 -55.140625 C 71.535156 -51.101562 67.6875 -48.050781 62.917969 -45.988281 C 58.902344 -44.25 54.484375 -43.382812 49.660156 -43.382812 Z M 49.660156 -43.382812 "/></g></g></g><g fill="#ff61f7" fill-opacity="1"><g transform="translate(32.577856, 166.178915)"><g><path d="M 22.328125 0.96875 C 17.429688 0.96875 13.59375 -0.207031 10.8125 -2.5625 C 8.039062 -4.925781 6.125 -8.785156 5.0625 -14.140625 C 4 -19.503906 3.46875 -26.675781 3.46875 -35.65625 C 3.46875 -47.207031 4.34375 -57.125 6.09375 -65.40625 C 7.851562 -73.6875 10.445312 -80.273438 13.875 -85.171875 C 18.21875 -91.460938 23.925781 -95.925781 31 -98.5625 C 38.070312 -101.195312 45.679688 -102.515625 53.828125 -102.515625 C 66.773438 -102.515625 76.296875 -99.691406 82.390625 -94.046875 C 88.492188 -88.410156 91.546875 -81.015625 91.546875 -71.859375 C 91.546875 -66.023438 90.179688 -61.050781 87.453125 -56.9375 C 84.734375 -52.820312 80.988281 -49.675781 76.21875 -47.5 C 71.457031 -45.332031 65.976562 -44.15625 59.78125 -43.96875 L 59.78125 -43.421875 C 71.070312 -39.992188 79.070312 -36.035156 83.78125 -31.546875 C 88.5 -27.066406 90.859375 -22.238281 90.859375 -17.0625 C 90.859375 -12.070312 89.191406 -8.09375 85.859375 -5.125 C 82.535156 -2.164062 78.003906 -0.6875 72.265625 -0.6875 C 67.734375 -0.6875 63.640625 -1.863281 59.984375 -4.21875 C 56.335938 -6.582031 52.828125 -10.65625 49.453125 -16.4375 C 46.078125 -22.21875 42.398438 -30.238281 38.421875 -40.5 L 37.875 -40.5 C 38.332031 -38.75 38.722656 -36.625 39.046875 -34.125 C 39.367188 -31.625 39.644531 -29.054688 39.875 -26.421875 C 40.113281 -23.785156 40.234375 -21.3125 40.234375 -19 C 40.234375 -12.53125 38.890625 -7.582031 36.203125 -4.15625 C 33.523438 -0.738281 28.898438 0.96875 22.328125 0.96875 Z M 49.65625 -61.59375 C 51.96875 -61.59375 53.976562 -61.960938 55.6875 -62.703125 C 57.40625 -63.441406 58.75 -64.476562 59.71875 -65.8125 C 60.6875 -67.15625 61.171875 -68.707031 61.171875 -70.46875 C 61.171875 -73.613281 60.316406 -76.222656 58.609375 -78.296875 C 56.898438 -80.378906 54.148438 -81.421875 50.359375 -81.421875 C 47.859375 -81.421875 45.660156 -80.984375 43.765625 -80.109375 C 41.867188 -79.234375 40.410156 -78.078125 39.390625 -76.640625 C 38.378906 -75.203125 37.875 -73.65625 37.875 -72 C 37.875 -68.945312 38.910156 -66.445312 40.984375 -64.5 C 43.066406 -62.5625 45.957031 -61.59375 49.65625 -61.59375 Z M 49.65625 -61.59375 "/></g></g></g><g transform="matrix(1, 0, 0, 1, 126, 72)"><g clip-path="url(#17f53cebf6)"><g fill="#f9f9f9" fill-opacity="1"><g transform="translate(12.30958, 95.692933)"><g><path d="M 16.597656 -86.5625 C 19.5625 -86.5625 22.355469 -86.121094 24.96875 -85.238281 C 27.847656 -84.265625 30.421875 -82.796875 32.695312 -80.824219 C 36.9375 -77.148438 39.765625 -71.601562 41.1875 -64.175781 C 41.75 -61.199219 42.179688 -57.386719 42.476562 -52.742188 C 42.757812 -48.347656 42.898438 -43.839844 42.898438 -39.21875 C 42.898438 -34.921875 42.773438 -30.855469 42.527344 -27.019531 C 42.265625 -23.015625 41.835938 -19.242188 41.234375 -15.703125 C 39.957031 -7.757812 37.285156 -1.6875 33.210938 2.511719 C 30.867188 4.925781 28.175781 6.753906 25.140625 7.996094 C 22.199219 9.203125 19.054688 9.804688 15.707031 9.804688 C 12.722656 9.804688 9.890625 9.335938 7.210938 8.398438 C 4.410156 7.417969 1.867188 5.957031 -0.421875 4.019531 C -4.957031 0.183594 -7.890625 -5.554688 -9.21875 -13.1875 L -9.257812 -13.414062 L -9.289062 -13.640625 C -9.59375 -15.84375 -9.871094 -18.769531 -10.121094 -22.425781 C -10.371094 -26.078125 -10.496094 -30.03125 -10.496094 -34.277344 C -10.496094 -39.941406 -10.304688 -45.320312 -9.917969 -50.421875 C -9.511719 -55.777344 -8.917969 -60.285156 -8.136719 -63.945312 C -6.671875 -70.964844 -3.957031 -76.359375 0.00390625 -80.128906 C 2.285156 -82.296875 4.890625 -83.929688 7.816406 -85.023438 C 10.558594 -86.050781 13.484375 -86.5625 16.597656 -86.5625 Z M 16.597656 -60.628906 C 16.558594 -60.628906 16.527344 -60.628906 16.503906 -60.625 C 16.507812 -60.628906 16.519531 -60.628906 16.539062 -60.632812 C 16.648438 -60.648438 16.769531 -60.683594 16.90625 -60.734375 C 17.277344 -60.875 17.601562 -61.074219 17.875 -61.335938 C 18.03125 -61.484375 18.152344 -61.617188 18.230469 -61.734375 C 18.207031 -61.695312 18.160156 -61.609375 18.097656 -61.472656 C 17.78125 -60.792969 17.492188 -59.816406 17.226562 -58.550781 C 16.6875 -56.019531 16.261719 -52.660156 15.941406 -48.460938 C 15.605469 -44.011719 15.4375 -39.285156 15.4375 -34.277344 C 15.4375 -30.625 15.539062 -27.265625 15.75 -24.203125 C 15.960938 -21.136719 16.179688 -18.796875 16.402344 -17.183594 L 3.554688 -15.410156 L 16.332031 -17.632812 C 16.53125 -16.472656 16.761719 -15.613281 17.023438 -15.050781 C 17.042969 -15.007812 17.054688 -14.980469 17.0625 -14.964844 C 17.046875 -14.996094 17.019531 -15.039062 16.980469 -15.085938 C 16.816406 -15.320312 16.597656 -15.546875 16.328125 -15.777344 C 16.179688 -15.902344 15.996094 -16.003906 15.78125 -16.078125 C 15.707031 -16.105469 15.636719 -16.121094 15.582031 -16.132812 C 15.601562 -16.128906 15.640625 -16.128906 15.707031 -16.128906 L 15.703125 -16.121094 C 15.582031 -16.097656 15.453125 -16.058594 15.3125 -16 C 15.007812 -15.875 14.773438 -15.726562 14.601562 -15.550781 C 14.476562 -15.421875 14.394531 -15.324219 14.351562 -15.257812 C 14.433594 -15.386719 14.527344 -15.585938 14.632812 -15.855469 C 15.035156 -16.855469 15.378906 -18.257812 15.667969 -20.054688 C 16.121094 -22.707031 16.445312 -25.589844 16.648438 -28.695312 C 16.859375 -31.972656 16.964844 -35.480469 16.964844 -39.21875 C 16.964844 -43.289062 16.84375 -47.242188 16.597656 -51.082031 C 16.367188 -54.667969 16.074219 -57.410156 15.714844 -59.304688 C 15.484375 -60.519531 15.230469 -61.429688 14.957031 -62.027344 C 14.933594 -62.078125 14.914062 -62.113281 14.90625 -62.132812 C 14.921875 -62.101562 14.949219 -62.058594 14.984375 -62.007812 C 15.167969 -61.75 15.410156 -61.488281 15.710938 -61.230469 C 16.007812 -60.972656 16.328125 -60.785156 16.671875 -60.667969 C 16.753906 -60.640625 16.820312 -60.621094 16.863281 -60.617188 C 16.804688 -60.625 16.714844 -60.628906 16.597656 -60.628906 Z M 16.597656 -60.628906 "/></g></g></g><g fill="#f9f9f9" fill-opacity="1"><g transform="translate(44.715414, 95.692933)"><g><path d="M 25.488281 13.261719 C 21.859375 13.261719 18.234375 12.953125 14.613281 12.335938 C 10.5 11.636719 6.703125 10.4375 3.222656 8.746094 C -1.074219 6.660156 -4.578125 3.761719 -7.292969 0.0625 C -10.417969 -4.195312 -11.976562 -9.222656 -11.976562 -15.015625 C -11.976562 -18.207031 -11.519531 -21.128906 -10.605469 -23.789062 C -9.46875 -27.09375 -7.683594 -29.894531 -5.246094 -32.195312 C -0.972656 -36.234375 4.859375 -38.253906 12.25 -38.253906 C 15.183594 -38.253906 18.3125 -38.011719 21.632812 -37.527344 C 23.710938 -37.222656 25.261719 -37.070312 26.277344 -37.070312 C 26.105469 -37.070312 25.851562 -37.03125 25.511719 -36.960938 C 24.523438 -36.746094 23.554688 -36.328125 22.601562 -35.707031 C 21.375 -34.90625 20.347656 -33.84375 19.523438 -32.515625 C 18.410156 -30.726562 17.855469 -28.777344 17.855469 -26.671875 C 17.855469 -24.886719 18.285156 -23.1875 19.140625 -21.570312 C 20.015625 -19.914062 21.214844 -18.578125 22.738281 -17.5625 C 23.214844 -17.246094 23.652344 -17.007812 24.054688 -16.851562 C 24.082031 -16.839844 24.105469 -16.832031 24.125 -16.824219 L 24.113281 -16.828125 C 24.046875 -16.847656 23.96875 -16.871094 23.867188 -16.898438 C 22.917969 -17.148438 21.539062 -17.441406 19.738281 -17.78125 C 13.867188 -18.871094 8.9375 -20.457031 4.953125 -22.542969 C -0.191406 -25.234375 -4.03125 -28.894531 -6.574219 -33.519531 C -8.925781 -37.800781 -10.101562 -42.730469 -10.101562 -48.304688 C -10.101562 -54.144531 -8.875 -59.378906 -6.417969 -64.011719 C -4.105469 -68.375 -1.019531 -72.0625 2.835938 -75.074219 C 6.242188 -77.730469 10.019531 -79.867188 14.167969 -81.480469 C 17.949219 -82.953125 21.820312 -84.023438 25.78125 -84.699219 C 29.597656 -85.347656 33.253906 -85.671875 36.75 -85.671875 C 45.34375 -85.671875 52.503906 -83.949219 58.21875 -80.5 C 62.007812 -78.210938 64.921875 -75.242188 66.953125 -71.601562 C 68.960938 -68 69.964844 -63.988281 69.964844 -59.566406 C 69.964844 -56.226562 69.398438 -53.105469 68.261719 -50.195312 C 67.046875 -47.085938 65.238281 -44.347656 62.839844 -41.980469 C 58.140625 -37.355469 51.75 -35.042969 43.664062 -35.042969 C 41.859375 -35.042969 39.828125 -35.121094 37.566406 -35.269531 C 35.480469 -35.410156 33.492188 -35.566406 31.601562 -35.742188 C 30.222656 -35.867188 29.203125 -35.933594 28.550781 -35.933594 C 28.4375 -35.933594 28.351562 -35.929688 28.292969 -35.925781 C 28.328125 -35.929688 28.386719 -35.9375 28.472656 -35.949219 C 29.144531 -36.054688 29.867188 -36.289062 30.636719 -36.660156 C 32.316406 -37.460938 33.710938 -38.664062 34.828125 -40.261719 C 36.191406 -42.21875 36.871094 -44.371094 36.871094 -46.726562 C 36.871094 -48.324219 36.546875 -49.84375 35.894531 -51.285156 C 35.425781 -52.328125 34.820312 -53.246094 34.078125 -54.042969 C 33.40625 -54.757812 32.710938 -55.324219 31.984375 -55.738281 C 31.855469 -55.808594 31.746094 -55.867188 31.652344 -55.910156 C 31.644531 -55.914062 31.636719 -55.917969 31.636719 -55.917969 C 31.65625 -55.910156 31.675781 -55.898438 31.707031 -55.890625 C 32.394531 -55.628906 33.585938 -55.300781 35.273438 -54.902344 C 42.152344 -53.285156 47.800781 -51.167969 52.226562 -48.558594 C 57.558594 -45.414062 61.5 -41.523438 64.058594 -36.882812 C 66.546875 -32.367188 67.792969 -27.347656 67.792969 -21.832031 C 67.792969 -14.5625 65.707031 -8.113281 61.53125 -2.496094 C 57.644531 2.738281 52.402344 6.734375 45.796875 9.492188 C 39.785156 12.007812 33.015625 13.261719 25.488281 13.261719 Z M 25.488281 -12.667969 C 29.546875 -12.667969 32.984375 -13.257812 35.800781 -14.433594 C 38.019531 -15.363281 39.65625 -16.535156 40.710938 -17.953125 C 41.476562 -18.984375 41.859375 -20.277344 41.859375 -21.832031 C 41.859375 -22.898438 41.6875 -23.742188 41.347656 -24.363281 C 41.277344 -24.492188 41.128906 -24.664062 40.90625 -24.878906 C 40.453125 -25.3125 39.832031 -25.761719 39.050781 -26.222656 C 36.890625 -27.496094 33.652344 -28.644531 29.332031 -29.660156 C 26.542969 -30.316406 24.273438 -30.972656 22.527344 -31.636719 C 19.425781 -32.808594 16.953125 -34.378906 15.117188 -36.347656 C 13.914062 -37.636719 12.964844 -39.058594 12.261719 -40.609375 C 11.378906 -42.5625 10.941406 -44.601562 10.941406 -46.726562 C 10.941406 -49.804688 11.8125 -52.589844 13.554688 -55.089844 C 15.046875 -57.234375 17.011719 -58.886719 19.449219 -60.054688 C 21.972656 -61.261719 25.007812 -61.867188 28.550781 -61.867188 C 30.003906 -61.867188 31.816406 -61.765625 33.992188 -61.5625 C 35.660156 -61.410156 37.425781 -61.269531 39.289062 -61.144531 C 40.980469 -61.03125 42.4375 -60.976562 43.664062 -60.976562 C 44.589844 -60.976562 45.253906 -61.039062 45.652344 -61.167969 C 45.363281 -61.074219 45.027344 -60.839844 44.640625 -60.457031 C 44.414062 -60.234375 44.234375 -59.957031 44.105469 -59.628906 C 44.066406 -59.519531 44.035156 -59.429688 44.023438 -59.355469 C 44.03125 -59.390625 44.035156 -59.460938 44.035156 -59.566406 C 44.035156 -59.628906 44.03125 -59.675781 44.027344 -59.703125 C 44.03125 -59.683594 44.039062 -59.648438 44.046875 -59.605469 C 44.097656 -59.402344 44.183594 -59.1875 44.304688 -58.96875 C 44.433594 -58.738281 44.582031 -58.539062 44.746094 -58.375 C 44.792969 -58.328125 44.832031 -58.289062 44.867188 -58.261719 C 44.863281 -58.265625 44.847656 -58.277344 44.816406 -58.296875 C 44.191406 -58.671875 43.335938 -58.984375 42.25 -59.226562 C 40.71875 -59.570312 38.886719 -59.742188 36.75 -59.742188 C 34.710938 -59.742188 32.507812 -59.539062 30.132812 -59.132812 C 27.902344 -58.753906 25.714844 -58.148438 23.566406 -57.3125 C 21.789062 -56.621094 20.199219 -55.726562 18.796875 -54.632812 C 17.847656 -53.890625 17.078125 -52.96875 16.496094 -51.863281 C 16.050781 -51.03125 15.832031 -49.84375 15.832031 -48.304688 C 15.832031 -47.164062 15.9375 -46.398438 16.15625 -46.003906 C 16.132812 -46.042969 16.113281 -46.078125 16.089844 -46.105469 C 16.085938 -46.109375 16.082031 -46.113281 16.082031 -46.113281 C 16.089844 -46.105469 16.101562 -46.09375 16.117188 -46.078125 C 16.300781 -45.910156 16.585938 -45.726562 16.976562 -45.519531 C 18.65625 -44.640625 21.171875 -43.890625 24.519531 -43.269531 C 26.929688 -42.816406 28.914062 -42.386719 30.464844 -41.976562 C 33.113281 -41.28125 35.332031 -40.335938 37.125 -39.140625 C 39.242188 -37.730469 40.886719 -35.917969 42.058594 -33.703125 C 43.210938 -31.523438 43.789062 -29.179688 43.789062 -26.671875 C 43.789062 -23.84375 43.042969 -21.226562 41.550781 -18.828125 C 40.347656 -16.894531 38.753906 -15.277344 36.769531 -13.984375 C 33.859375 -12.085938 30.363281 -11.136719 26.277344 -11.136719 C 24 -11.136719 21.203125 -11.378906 17.878906 -11.867188 C 15.800781 -12.171875 13.925781 -12.324219 12.25 -12.324219 C 11.515625 -12.324219 11.027344 -12.289062 10.785156 -12.214844 C 11.34375 -12.382812 11.9375 -12.757812 12.558594 -13.34375 C 13.214844 -13.964844 13.667969 -14.636719 13.914062 -15.355469 C 13.957031 -15.472656 13.980469 -15.546875 13.984375 -15.585938 C 13.964844 -15.449219 13.953125 -15.257812 13.953125 -15.015625 C 13.953125 -14.847656 13.960938 -14.710938 13.976562 -14.597656 L 13.972656 -14.589844 C 13.910156 -14.8125 13.789062 -15.039062 13.617188 -15.273438 C 13.800781 -15.023438 14.113281 -14.792969 14.558594 -14.574219 C 15.820312 -13.960938 17.292969 -13.511719 18.972656 -13.226562 C 21.148438 -12.855469 23.320312 -12.667969 25.488281 -12.667969 Z M 25.488281 -12.667969 "/></g></g></g><g fill="#f9f9f9" fill-opacity="1"><g transform="translate(102.707361, 95.692933)"><g><path d="M 31.214844 -85.574219 C 36.535156 -85.574219 41.078125 -85.320312 44.84375 -84.816406 C 49.078125 -84.25 52.773438 -83.34375 55.921875 -82.101562 L 56.058594 -82.050781 L 56.191406 -81.992188 C 62.410156 -79.382812 66.816406 -75.523438 69.402344 -70.421875 C 71.492188 -66.308594 72.535156 -61.765625 72.535156 -56.800781 C 72.535156 -49.734375 70.464844 -43.773438 66.328125 -38.914062 C 63.882812 -36.042969 60.871094 -33.90625 57.292969 -32.503906 C 54.21875 -31.300781 50.828125 -30.695312 47.121094 -30.695312 C 44.628906 -30.695312 42.039062 -30.921875 39.359375 -31.367188 C 36.792969 -31.792969 34.175781 -32.425781 31.496094 -33.261719 L 22.398438 -36.105469 L 22.398438 -48.40625 L 46.773438 -54.570312 C 48.441406 -51.484375 49.902344 -48.074219 51.160156 -44.347656 C 52.324219 -40.894531 53.300781 -37.421875 54.089844 -33.925781 C 54.867188 -30.480469 55.460938 -27.199219 55.875 -24.078125 C 56.3125 -20.78125 56.53125 -17.890625 56.53125 -15.410156 C 56.53125 -7.242188 54.464844 -0.574219 50.332031 4.59375 C 47.726562 7.847656 44.382812 10.242188 40.300781 11.777344 C 36.96875 13.03125 33.214844 13.65625 29.042969 13.65625 C 25.253906 13.65625 21.789062 13.101562 18.644531 11.988281 C 14.964844 10.6875 11.824219 8.679688 9.21875 5.964844 C 4.4375 0.988281 2.050781 -5.742188 2.050781 -14.226562 C 2.050781 -17.359375 2.378906 -20.78125 3.039062 -24.496094 C 3.648438 -27.917969 4.480469 -31.433594 5.53125 -35.042969 C 6.582031 -38.640625 7.78125 -42.09375 9.140625 -45.410156 C 10.542969 -48.847656 12.019531 -51.902344 13.558594 -54.578125 L 31.816406 -86.292969 L 39.667969 -37.21875 L 29.742188 -33.5 C 28.207031 -32.921875 26.449219 -32.390625 24.464844 -31.90625 C 22.625 -31.457031 20.78125 -31.089844 18.933594 -30.800781 C 16.792969 -30.46875 14.792969 -30.300781 12.941406 -30.300781 C 4.644531 -30.300781 -1.726562 -32.675781 -6.164062 -37.429688 C -8.390625 -39.8125 -10.039062 -42.601562 -11.101562 -45.800781 C -12.015625 -48.539062 -12.472656 -51.515625 -12.472656 -54.726562 C -12.472656 -60.152344 -11.179688 -65.089844 -8.59375 -69.539062 C -5.898438 -74.175781 -1.871094 -77.863281 3.488281 -80.597656 C 7.128906 -82.46875 11.375 -83.792969 16.222656 -84.570312 C 20.394531 -85.238281 25.390625 -85.574219 31.214844 -85.574219 Z M 31.214844 -59.640625 C 26.769531 -59.640625 23.140625 -59.417969 20.328125 -58.964844 C 18.195312 -58.625 16.511719 -58.136719 15.28125 -57.503906 C 14.722656 -57.21875 14.292969 -56.941406 13.996094 -56.675781 C 13.898438 -56.589844 13.84375 -56.535156 13.828125 -56.511719 C 13.582031 -56.089844 13.460938 -55.492188 13.460938 -54.726562 C 13.460938 -54.449219 13.472656 -54.21875 13.5 -54.03125 C 13.507812 -53.992188 13.511719 -53.960938 13.515625 -53.9375 C 13.515625 -53.953125 13.507812 -53.972656 13.5 -54 C 13.371094 -54.382812 13.132812 -54.761719 12.785156 -55.132812 C 12.164062 -55.796875 11.566406 -56.21875 10.996094 -56.394531 C 11.339844 -56.289062 11.988281 -56.234375 12.941406 -56.234375 C 13.457031 -56.234375 14.128906 -56.296875 14.949219 -56.425781 C 16.066406 -56.601562 17.183594 -56.824219 18.308594 -57.097656 C 19.289062 -57.339844 20.066406 -57.566406 20.636719 -57.78125 L 25.191406 -45.640625 L 12.386719 -43.589844 L 11.992188 -46.058594 L 24.796875 -48.109375 L 36.03125 -41.640625 C 35.070312 -39.96875 34.105469 -37.953125 33.140625 -35.59375 C 32.125 -33.113281 31.222656 -30.511719 30.425781 -27.785156 C 29.636719 -25.070312 29.015625 -22.460938 28.570312 -19.957031 C 28.179688 -17.746094 27.980469 -15.832031 27.980469 -14.226562 C 27.980469 -13.0625 28.074219 -12.183594 28.265625 -11.589844 C 28.277344 -11.539062 28.292969 -11.503906 28.300781 -11.480469 C 28.296875 -11.496094 28.285156 -11.519531 28.265625 -11.550781 C 28.183594 -11.695312 28.070312 -11.84375 27.925781 -11.992188 C 27.691406 -12.238281 27.480469 -12.390625 27.292969 -12.457031 C 27.636719 -12.335938 28.222656 -12.273438 29.042969 -12.273438 C 30.074219 -12.273438 30.78125 -12.347656 31.171875 -12.496094 C 30.808594 -12.359375 30.445312 -12.0625 30.082031 -11.605469 C 30.0625 -11.585938 30.050781 -11.566406 30.042969 -11.554688 C 30.046875 -11.558594 30.050781 -11.570312 30.0625 -11.589844 C 30.125 -11.714844 30.183594 -11.886719 30.246094 -12.101562 C 30.480469 -12.9375 30.597656 -14.039062 30.597656 -15.410156 C 30.597656 -16.75 30.453125 -18.503906 30.167969 -20.671875 C 29.855469 -23.015625 29.398438 -25.53125 28.792969 -28.210938 C 28.199219 -30.839844 27.464844 -33.457031 26.585938 -36.066406 C 25.800781 -38.394531 24.925781 -40.453125 23.957031 -42.238281 L 35.367188 -48.40625 L 48.332031 -48.40625 L 48.332031 -45.640625 L 35.367188 -45.640625 L 39.234375 -58.015625 C 40.769531 -57.535156 42.234375 -57.179688 43.621094 -56.945312 C 44.890625 -56.734375 46.058594 -56.628906 47.121094 -56.628906 C 47.4375 -56.628906 47.695312 -56.644531 47.890625 -56.679688 C 47.925781 -56.683594 47.949219 -56.6875 47.957031 -56.691406 C 47.925781 -56.683594 47.886719 -56.667969 47.839844 -56.652344 C 47.371094 -56.46875 46.953125 -56.160156 46.582031 -55.722656 C 46.519531 -55.648438 46.480469 -55.59375 46.46875 -55.558594 C 46.558594 -55.828125 46.601562 -56.242188 46.601562 -56.800781 C 46.601562 -57.632812 46.492188 -58.261719 46.277344 -58.691406 C 46.519531 -58.210938 46.785156 -57.851562 47.074219 -57.617188 C 46.9375 -57.726562 46.628906 -57.882812 46.148438 -58.085938 L 51.171875 -70.039062 L 46.417969 -57.976562 C 45.222656 -58.445312 43.550781 -58.824219 41.398438 -59.113281 C 38.773438 -59.464844 35.382812 -59.640625 31.214844 -59.640625 Z M 31.214844 -59.640625 "/></g></g></g><g fill="#f9f9f9" fill-opacity="1"><g transform="translate(161.78891, 95.692933)"><g><path d="M 39.316406 -85.671875 C 43.367188 -85.671875 46.941406 -85.324219 50.046875 -84.632812 C 54.109375 -83.722656 57.527344 -82.191406 60.308594 -80.035156 C 63.273438 -77.730469 65.511719 -74.882812 67.019531 -71.488281 C 68.390625 -68.40625 69.078125 -65.023438 69.078125 -61.347656 C 69.078125 -57.34375 68.230469 -53.699219 66.542969 -50.414062 C 64.742188 -46.917969 62.132812 -44.074219 58.707031 -41.882812 C 53.644531 -38.640625 46.785156 -37.019531 38.132812 -37.019531 C 35.921875 -37.019531 33.453125 -37.070312 30.71875 -37.175781 C 27.914062 -37.285156 24.980469 -37.480469 21.914062 -37.765625 L 0.972656 -39.714844 L 25.417969 -78.824219 L 35.414062 -56.832031 C 36.847656 -53.679688 37.5625 -50.34375 37.5625 -46.824219 C 37.5625 -43.71875 37.0625 -40.71875 36.054688 -37.824219 L 31.449219 -24.585938 L -16.625 -45.617188 L 18.816406 -55.285156 C 20.785156 -55.820312 23.070312 -56.273438 25.679688 -56.648438 C 27.984375 -56.976562 30.371094 -57.25 32.84375 -57.46875 C 35.460938 -57.699219 37.882812 -57.816406 40.105469 -57.816406 C 43.53125 -57.816406 46.574219 -57.527344 49.226562 -56.953125 C 52.84375 -56.175781 55.910156 -54.832031 58.433594 -52.929688 C 60.957031 -51.027344 62.921875 -48.765625 64.320312 -46.152344 C 65.84375 -43.300781 66.605469 -40.234375 66.605469 -36.945312 C 66.605469 -33.5 65.785156 -30.289062 64.140625 -27.308594 C 62.660156 -24.628906 60.59375 -22.304688 57.941406 -20.34375 C 55.300781 -18.394531 52.082031 -17.011719 48.285156 -16.203125 C 45.425781 -15.589844 42.140625 -15.285156 38.429688 -15.285156 C 35.589844 -15.285156 32.554688 -15.4375 29.324219 -15.738281 C 26.210938 -16.027344 23.070312 -16.425781 19.894531 -16.929688 L -10.339844 -21.738281 L 27.234375 -49.917969 L 34.628906 -37.589844 C 36.175781 -35.015625 37.140625 -32.117188 37.523438 -28.898438 C 37.847656 -26.167969 37.75 -23.460938 37.226562 -20.78125 C 36.617188 -17.667969 35.445312 -14.847656 33.703125 -12.3125 L 10.050781 22.089844 L 10.050781 -30.222656 L 19.203125 -33.039062 C 21.46875 -33.734375 23.972656 -34.3125 26.714844 -34.769531 C 29.226562 -35.1875 31.808594 -35.511719 34.457031 -35.738281 C 37.128906 -35.96875 39.636719 -36.082031 41.984375 -36.082031 C 49.339844 -36.082031 55.273438 -34.535156 59.789062 -31.4375 C 62.945312 -29.273438 65.308594 -26.441406 66.878906 -22.941406 C 68.210938 -19.96875 68.878906 -16.667969 68.878906 -13.039062 C 68.878906 -8.386719 67.839844 -4.289062 65.761719 -0.746094 C 63.605469 2.929688 60.324219 5.902344 55.921875 8.167969 C 53.1875 9.535156 50.011719 10.632812 46.394531 11.457031 C 43.273438 12.167969 39.984375 12.699219 36.523438 13.046875 C 33.15625 13.390625 29.839844 13.558594 26.574219 13.558594 C 19.789062 13.558594 13.960938 12.636719 9.089844 10.792969 C 2.960938 8.472656 -1.628906 4.851562 -4.691406 -0.0703125 L -4.785156 -0.222656 L -4.878906 -0.382812 C -7.085938 -4.164062 -8.609375 -8.777344 -9.453125 -14.210938 C -10.148438 -18.691406 -10.496094 -24.589844 -10.496094 -31.90625 C -10.496094 -38.710938 -10.238281 -44.414062 -9.722656 -49.007812 C -9.160156 -54.03125 -8.308594 -58.257812 -7.164062 -61.691406 C -5.875 -65.5625 -4.261719 -68.804688 -2.328125 -71.425781 C 0.816406 -75.65625 5.066406 -78.886719 10.421875 -81.121094 C 14.664062 -82.886719 19.433594 -84.105469 24.742188 -84.777344 C 29.433594 -85.375 34.292969 -85.671875 39.316406 -85.671875 Z M 39.316406 -59.742188 C 35.386719 -59.742188 31.617188 -59.511719 28.007812 -59.054688 C 25.019531 -58.671875 22.480469 -58.050781 20.398438 -57.179688 C 19.433594 -56.777344 18.808594 -56.390625 18.527344 -56.011719 C 18.222656 -55.597656 17.859375 -54.757812 17.4375 -53.492188 C 16.871094 -51.789062 16.40625 -49.332031 16.046875 -46.121094 C 15.640625 -42.484375 15.4375 -37.746094 15.4375 -31.90625 C 15.4375 -25.921875 15.679688 -21.351562 16.171875 -18.1875 C 16.511719 -15.984375 16.964844 -14.40625 17.523438 -13.449219 L 6.324219 -6.914062 L 17.335938 -13.761719 C 17.246094 -13.898438 17.179688 -13.988281 17.132812 -14.023438 C 17.363281 -13.847656 17.746094 -13.660156 18.273438 -13.460938 C 20.1875 -12.734375 22.953125 -12.375 26.574219 -12.375 C 28.96875 -12.375 31.414062 -12.5 33.914062 -12.753906 C 36.3125 -12.996094 38.554688 -13.351562 40.636719 -13.828125 C 42.222656 -14.1875 43.359375 -14.542969 44.046875 -14.886719 C 44.183594 -14.953125 44.289062 -15.015625 44.371094 -15.066406 L 44.382812 -15.078125 C 44.363281 -15.0625 44.335938 -15.042969 44.308594 -15.015625 C 43.984375 -14.738281 43.679688 -14.355469 43.398438 -13.875 C 43.175781 -13.496094 43.027344 -13.144531 42.949219 -12.816406 C 42.945312 -12.785156 42.9375 -12.757812 42.933594 -12.738281 L 42.933594 -12.746094 C 42.941406 -12.820312 42.945312 -12.917969 42.945312 -13.039062 C 42.945312 -13.109375 42.945312 -13.164062 42.941406 -13.203125 C 42.941406 -13.1875 42.945312 -13.164062 42.953125 -13.125 C 43 -12.882812 43.085938 -12.617188 43.21875 -12.324219 C 43.636719 -11.394531 44.273438 -10.636719 45.121094 -10.050781 C 45.308594 -9.925781 45.464844 -9.835938 45.59375 -9.78125 C 45.535156 -9.804688 45.417969 -9.839844 45.246094 -9.878906 C 44.441406 -10.058594 43.355469 -10.148438 41.984375 -10.148438 C 40.378906 -10.148438 38.605469 -10.066406 36.671875 -9.902344 C 34.707031 -9.734375 32.8125 -9.496094 30.976562 -9.191406 C 29.375 -8.921875 27.992188 -8.609375 26.832031 -8.253906 L 23.015625 -20.644531 L 35.984375 -20.644531 L 35.984375 -19.660156 L 23.015625 -19.660156 L 12.332031 -27.003906 C 12.039062 -26.578125 11.851562 -26.160156 11.773438 -25.746094 C 11.777344 -25.765625 11.777344 -25.792969 11.773438 -25.832031 C 11.824219 -25.375 12.03125 -24.847656 12.394531 -24.25 L 23.511719 -30.921875 L 31.289062 -20.546875 L 29.710938 -19.363281 L 21.929688 -29.734375 L 23.96875 -42.539062 C 26.585938 -42.121094 29.175781 -41.796875 31.726562 -41.558594 C 34.160156 -41.332031 36.390625 -41.21875 38.429688 -41.21875 C 40.316406 -41.21875 41.796875 -41.332031 42.871094 -41.5625 C 43.113281 -41.613281 43.269531 -41.65625 43.339844 -41.683594 C 43.105469 -41.589844 42.835938 -41.425781 42.527344 -41.199219 C 42.144531 -40.917969 41.78125 -40.464844 41.4375 -39.839844 C 40.929688 -38.921875 40.675781 -37.953125 40.675781 -36.945312 C 40.675781 -35.898438 40.933594 -34.886719 41.457031 -33.914062 C 41.851562 -33.175781 42.304688 -32.613281 42.820312 -32.222656 C 43.203125 -31.933594 43.566406 -31.71875 43.902344 -31.582031 C 43.945312 -31.5625 43.972656 -31.554688 43.984375 -31.550781 C 43.929688 -31.566406 43.851562 -31.585938 43.753906 -31.605469 C 42.902344 -31.789062 41.6875 -31.882812 40.105469 -31.882812 C 38.644531 -31.882812 36.980469 -31.800781 35.121094 -31.636719 C 33.113281 -31.460938 31.191406 -31.238281 29.34375 -30.976562 C 27.804688 -30.753906 26.566406 -30.519531 25.636719 -30.265625 L 22.226562 -42.773438 L 27.425781 -54.652344 L 29.003906 -53.960938 L 23.808594 -42.082031 L 11.5625 -46.34375 C 11.609375 -46.476562 11.632812 -46.636719 11.632812 -46.824219 C 11.632812 -46.597656 11.691406 -46.359375 11.804688 -46.101562 L 23.609375 -51.46875 L 34.605469 -44.59375 L 34.109375 -43.804688 L 23.117188 -50.675781 L 24.316406 -63.585938 C 26.914062 -63.347656 29.382812 -63.179688 31.714844 -63.089844 C 34.117188 -63 36.257812 -62.953125 38.132812 -62.953125 C 40.308594 -62.953125 42.09375 -63.097656 43.488281 -63.386719 C 43.957031 -63.484375 44.339844 -63.585938 44.636719 -63.699219 C 44.710938 -63.726562 44.765625 -63.75 44.804688 -63.769531 C 44.789062 -63.761719 44.761719 -63.746094 44.722656 -63.71875 C 44.226562 -63.402344 43.8125 -62.921875 43.480469 -62.277344 C 43.332031 -61.988281 43.230469 -61.710938 43.171875 -61.445312 C 43.15625 -61.378906 43.148438 -61.324219 43.144531 -61.28125 C 43.144531 -61.289062 43.144531 -61.308594 43.144531 -61.347656 C 43.144531 -61.417969 43.140625 -61.476562 43.136719 -61.523438 C 43.136719 -61.53125 43.136719 -61.535156 43.136719 -61.535156 C 43.136719 -61.527344 43.140625 -61.511719 43.144531 -61.5 C 43.175781 -61.339844 43.234375 -61.160156 43.324219 -60.957031 C 43.578125 -60.378906 43.941406 -59.910156 44.40625 -59.550781 C 44.664062 -59.347656 44.882812 -59.210938 45.058594 -59.136719 C 44.929688 -59.191406 44.707031 -59.253906 44.390625 -59.324219 C 43.148438 -59.601562 41.457031 -59.742188 39.316406 -59.742188 Z M 39.316406 -59.742188 "/></g></g></g><g clip-path="url(#1b29d7cd00)"><g fill="#f9f9f9" fill-opacity="1"><g transform="translate(218.895558, 95.692933)"><g><path d="M 13.039062 13.953125 C 8.082031 13.953125 3.78125 12.683594 0.136719 10.140625 C -3.746094 7.429688 -6.417969 3.644531 -7.875 -1.214844 C -8.722656 -4.035156 -9.382812 -8.144531 -9.855469 -13.539062 C -10.28125 -18.425781 -10.496094 -23.691406 -10.496094 -29.339844 C -10.496094 -35.242188 -10.34375 -40.996094 -10.03125 -46.601562 C -9.703125 -52.554688 -9.089844 -57.863281 -8.1875 -62.527344 C -6.992188 -68.597656 -4.78125 -73.414062 -1.550781 -76.972656 C 0.683594 -79.4375 3.402344 -81.253906 6.605469 -82.433594 C 9.257812 -83.40625 12.160156 -83.894531 15.3125 -83.894531 C 20.433594 -83.894531 24.90625 -82.65625 28.726562 -80.183594 C 32.902344 -77.480469 35.90625 -73.492188 37.738281 -68.210938 C 39.070312 -64.367188 39.738281 -59.640625 39.738281 -54.035156 C 39.738281 -52.921875 39.71875 -51.742188 39.683594 -50.492188 C 39.640625 -49.046875 39.535156 -47.535156 39.371094 -45.960938 L 26.476562 -47.320312 L 26.476562 -60.285156 L 26.871094 -60.285156 L 26.871094 -47.320312 L 15.066406 -52.683594 C 18.496094 -60.230469 22.046875 -66.25 25.726562 -70.742188 C 29.832031 -75.761719 34.105469 -79.410156 38.546875 -81.679688 C 43.234375 -84.078125 47.871094 -85.277344 52.457031 -85.277344 C 55.824219 -85.277344 58.941406 -84.644531 61.804688 -83.382812 C 64.941406 -81.996094 67.59375 -79.945312 69.757812 -77.230469 C 73.320312 -72.757812 75.101562 -67.464844 75.101562 -61.347656 C 75.101562 -57.28125 74.234375 -53.359375 72.496094 -49.582031 C 70.925781 -46.167969 68.675781 -42.957031 65.742188 -39.949219 C 60.992188 -35.074219 53.726562 -30.078125 43.945312 -24.960938 L 16.398438 -10.554688 L 31.46875 -59.527344 L 45.960938 -49.78125 C 54.570312 -43.992188 61.011719 -38.316406 65.296875 -32.757812 C 70.515625 -25.980469 73.128906 -18.652344 73.128906 -10.769531 C 73.128906 -7.507812 72.570312 -4.46875 71.457031 -1.644531 C 70.246094 1.417969 68.4375 4.09375 66.035156 6.378906 C 63.636719 8.664062 60.816406 10.355469 57.582031 11.453125 C 54.800781 12.394531 51.773438 12.867188 48.503906 12.867188 C 42.726562 12.867188 37.363281 11.21875 32.421875 7.921875 C 27.898438 4.910156 23.976562 0.386719 20.652344 -5.644531 C 17.828125 -10.769531 15.355469 -17.375 13.238281 -25.464844 L 25.78125 -28.746094 L 25.78125 -15.78125 L 25.386719 -15.78125 L 25.386719 -28.746094 L 38.316406 -29.742188 C 38.394531 -28.714844 38.453125 -27.667969 38.492188 -26.609375 C 38.542969 -25.226562 38.519531 -23.863281 38.414062 -22.515625 L 25.488281 -23.511719 L 38.453125 -23.511719 C 38.453125 -18.511719 38.183594 -14.136719 37.640625 -10.382812 C 37 -5.941406 35.941406 -2.179688 34.46875 0.902344 C 32.414062 5.191406 29.433594 8.480469 25.515625 10.765625 C 21.875 12.890625 17.714844 13.953125 13.039062 13.953125 Z M 13.039062 -11.976562 C 13.152344 -11.976562 13.242188 -11.980469 13.3125 -11.988281 L 13.328125 -11.992188 C 13.308594 -11.988281 13.289062 -11.984375 13.261719 -11.976562 C 13.007812 -11.917969 12.734375 -11.800781 12.441406 -11.628906 C 11.769531 -11.238281 11.3125 -10.789062 11.074219 -10.285156 C 11.410156 -10.992188 11.710938 -12.257812 11.972656 -14.089844 C 12.339844 -16.613281 12.519531 -19.753906 12.519531 -23.511719 L 12.519531 -24.007812 L 12.558594 -24.503906 C 12.585938 -24.871094 12.59375 -25.253906 12.578125 -25.648438 C 12.550781 -26.367188 12.511719 -27.066406 12.460938 -27.753906 L 11.386719 -41.714844 L 35.792969 -41.714844 L 38.328125 -32.027344 C 39.898438 -26.023438 41.578125 -21.402344 43.363281 -18.164062 C 44.105469 -16.816406 44.835938 -15.714844 45.558594 -14.855469 C 46.03125 -14.292969 46.449219 -13.890625 46.804688 -13.652344 C 47.394531 -13.261719 47.960938 -13.066406 48.503906 -13.066406 C 48.789062 -13.066406 49.027344 -13.078125 49.214844 -13.105469 C 49.257812 -13.113281 49.289062 -13.121094 49.3125 -13.125 C 49.300781 -13.121094 49.28125 -13.117188 49.253906 -13.105469 C 48.882812 -12.980469 48.519531 -12.746094 48.160156 -12.40625 C 47.800781 -12.0625 47.523438 -11.652344 47.335938 -11.171875 C 47.269531 -11 47.222656 -10.847656 47.199219 -10.710938 C 47.195312 -10.6875 47.191406 -10.671875 47.191406 -10.664062 C 47.195312 -10.6875 47.195312 -10.722656 47.195312 -10.769531 C 47.195312 -12.761719 46.378906 -14.816406 44.753906 -16.933594 C 42.183594 -20.265625 37.765625 -24.039062 31.488281 -28.261719 L 38.722656 -39.019531 L 51.117188 -35.207031 L 50.328125 -32.640625 L 37.933594 -36.453125 L 31.925781 -47.941406 C 39.265625 -51.78125 44.347656 -55.148438 47.171875 -58.046875 C 48.503906 -59.414062 49.171875 -60.515625 49.171875 -61.347656 C 49.171875 -61.488281 49.164062 -61.597656 49.152344 -61.683594 C 49.148438 -61.695312 49.148438 -61.699219 49.148438 -61.699219 C 49.152344 -61.683594 49.160156 -61.660156 49.167969 -61.636719 C 49.230469 -61.4375 49.335938 -61.25 49.476562 -61.070312 C 49.960938 -60.460938 50.582031 -59.992188 51.332031 -59.660156 C 51.804688 -59.449219 52.179688 -59.34375 52.457031 -59.34375 C 52.035156 -59.34375 51.335938 -59.09375 50.359375 -58.59375 C 49.136719 -57.96875 47.613281 -56.542969 45.796875 -54.320312 C 43.546875 -51.570312 41.171875 -47.449219 38.675781 -41.953125 L 35.21875 -34.351562 L 12.070312 -34.351562 L 13.578125 -48.675781 C 13.675781 -49.601562 13.738281 -50.460938 13.761719 -51.257812 C 13.789062 -52.25 13.804688 -53.175781 13.804688 -54.035156 C 13.804688 -56.730469 13.613281 -58.621094 13.234375 -59.71875 C 13.207031 -59.804688 13.183594 -59.859375 13.171875 -59.886719 C 13.207031 -59.816406 13.261719 -59.726562 13.335938 -59.621094 C 13.660156 -59.167969 14.09375 -58.765625 14.640625 -58.414062 C 14.984375 -58.1875 15.3125 -58.039062 15.617188 -57.960938 C 15.644531 -57.953125 15.667969 -57.945312 15.6875 -57.941406 C 15.683594 -57.945312 15.675781 -57.945312 15.664062 -57.945312 C 15.574219 -57.957031 15.457031 -57.960938 15.3125 -57.960938 C 15.179688 -57.960938 15.097656 -57.960938 15.058594 -57.953125 C 15.191406 -57.972656 15.355469 -58.019531 15.546875 -58.089844 C 16.332031 -58.378906 17.03125 -58.863281 17.652344 -59.546875 C 17.785156 -59.695312 17.890625 -59.824219 17.960938 -59.941406 C 17.949219 -59.925781 17.925781 -59.871094 17.886719 -59.777344 C 17.660156 -59.25 17.457031 -58.523438 17.273438 -57.597656 C 16.597656 -54.09375 16.125 -49.949219 15.859375 -45.171875 C 15.578125 -40.042969 15.4375 -34.765625 15.4375 -29.339844 C 15.4375 -24.449219 15.617188 -19.9375 15.980469 -15.800781 C 16.296875 -12.171875 16.625 -9.792969 16.964844 -8.664062 C 16.878906 -8.945312 16.714844 -9.265625 16.476562 -9.621094 C 16.078125 -10.203125 15.582031 -10.707031 14.976562 -11.128906 C 14.449219 -11.496094 13.914062 -11.753906 13.371094 -11.898438 C 13.230469 -11.9375 13.109375 -11.964844 13 -11.976562 C 12.984375 -11.976562 12.972656 -11.980469 12.96875 -11.980469 C 12.984375 -11.980469 13.007812 -11.976562 13.039062 -11.976562 Z M 13.039062 -11.976562 "/></g></g></g></g><g fill="#ffa8fb" fill-opacity="1"><g transform="translate(12.30958, 95.692933)"><g><path d="M 16.59375 -73.59375 C 19.6875 -73.59375 22.222656 -72.734375 24.203125 -71.015625 C 26.179688 -69.304688 27.597656 -66.210938 28.453125 -61.734375 C 28.910156 -59.296875 29.269531 -56.019531 29.53125 -51.90625 C 29.800781 -47.789062 29.9375 -43.5625 29.9375 -39.21875 C 29.9375 -35.195312 29.816406 -31.40625 29.578125 -27.84375 C 29.347656 -24.289062 28.972656 -20.96875 28.453125 -17.875 C 27.597656 -12.539062 26.082031 -8.753906 23.90625 -6.515625 C 21.726562 -4.273438 18.992188 -3.15625 15.703125 -3.15625 C 12.671875 -3.15625 10.082031 -4.0625 7.9375 -5.875 C 5.800781 -7.6875 4.34375 -10.863281 3.5625 -15.40625 C 3.289062 -17.320312 3.039062 -19.957031 2.8125 -23.3125 C 2.582031 -26.664062 2.46875 -30.320312 2.46875 -34.28125 C 2.46875 -39.613281 2.648438 -44.664062 3.015625 -49.4375 C 3.378906 -54.21875 3.890625 -58.15625 4.546875 -61.25 C 5.460938 -65.65625 6.925781 -68.8125 8.9375 -70.71875 C 10.945312 -72.632812 13.5 -73.59375 16.59375 -73.59375 Z M 16.59375 -73.59375 "/></g></g></g><g fill="#ff61f7" fill-opacity="1"><g transform="translate(44.715414, 95.692933)"><g><path d="M 25.484375 0.296875 C 22.585938 0.296875 19.691406 0.0507812 16.796875 -0.4375 C 13.898438 -0.9375 11.265625 -1.757812 8.890625 -2.90625 C 6.515625 -4.0625 4.601562 -5.625 3.15625 -7.59375 C 1.707031 -9.570312 0.984375 -12.046875 0.984375 -15.015625 C 0.984375 -18.503906 1.875 -21.085938 3.65625 -22.765625 C 5.4375 -24.441406 8.300781 -25.28125 12.25 -25.28125 C 14.550781 -25.28125 17.050781 -25.082031 19.75 -24.6875 C 22.457031 -24.300781 24.632812 -24.109375 26.28125 -24.109375 C 27.789062 -24.109375 28.921875 -24.351562 29.671875 -24.84375 C 30.429688 -25.332031 30.8125 -25.941406 30.8125 -26.671875 C 30.8125 -27.390625 30.515625 -27.945312 29.921875 -28.34375 C 29.335938 -28.738281 28.414062 -29.101562 27.15625 -29.4375 C 25.90625 -29.769531 24.226562 -30.128906 22.125 -30.515625 C 17.519531 -31.378906 13.800781 -32.550781 10.96875 -34.03125 C 8.132812 -35.507812 6.070312 -37.414062 4.78125 -39.75 C 3.5 -42.09375 2.859375 -44.941406 2.859375 -48.296875 C 2.859375 -51.984375 3.582031 -55.191406 5.03125 -57.921875 C 6.488281 -60.660156 8.414062 -62.96875 10.8125 -64.84375 C 13.21875 -66.726562 15.898438 -68.242188 18.859375 -69.390625 C 21.828125 -70.546875 24.859375 -71.382812 27.953125 -71.90625 C 31.046875 -72.4375 33.976562 -72.703125 36.75 -72.703125 C 42.9375 -72.703125 47.859375 -71.597656 51.515625 -69.390625 C 55.171875 -67.179688 57 -63.90625 57 -59.5625 C 57 -56.132812 55.910156 -53.347656 53.734375 -51.203125 C 51.566406 -49.066406 48.207031 -48 43.65625 -48 C 42.144531 -48 40.398438 -48.066406 38.421875 -48.203125 C 36.453125 -48.335938 34.578125 -48.484375 32.796875 -48.640625 C 31.015625 -48.804688 29.597656 -48.890625 28.546875 -48.890625 C 26.960938 -48.890625 25.789062 -48.707031 25.03125 -48.34375 C 24.28125 -47.988281 23.90625 -47.445312 23.90625 -46.71875 C 23.90625 -46.195312 24.132812 -45.6875 24.59375 -45.1875 C 25.050781 -44.695312 25.890625 -44.21875 27.109375 -43.75 C 28.328125 -43.289062 30.054688 -42.800781 32.296875 -42.28125 C 37.898438 -40.957031 42.347656 -39.320312 45.640625 -37.375 C 48.929688 -35.4375 51.285156 -33.179688 52.703125 -30.609375 C 54.117188 -28.046875 54.828125 -25.117188 54.828125 -21.828125 C 54.828125 -17.421875 53.59375 -13.550781 51.125 -10.21875 C 48.65625 -6.894531 45.210938 -4.3125 40.796875 -2.46875 C 36.378906 -0.625 31.273438 0.296875 25.484375 0.296875 Z M 25.484375 0.296875 "/></g></g></g><g fill="#ffa8fb" fill-opacity="1"><g transform="translate(102.707361, 95.692933)"><g><path d="M 31.21875 -72.609375 C 35.957031 -72.609375 39.921875 -72.390625 43.109375 -71.953125 C 46.304688 -71.523438 48.992188 -70.882812 51.171875 -70.03125 C 54.460938 -68.65625 56.679688 -66.828125 57.828125 -64.546875 C 58.984375 -62.273438 59.5625 -59.691406 59.5625 -56.796875 C 59.5625 -52.910156 58.523438 -49.75 56.453125 -47.3125 C 54.378906 -44.875 51.269531 -43.65625 47.125 -43.65625 C 45.34375 -43.65625 43.460938 -43.820312 41.484375 -44.15625 C 39.515625 -44.488281 37.472656 -44.984375 35.359375 -45.640625 L 35.359375 -48.40625 C 36.679688 -45.96875 37.851562 -43.234375 38.875 -40.203125 C 39.894531 -37.171875 40.75 -34.125 41.4375 -31.0625 C 42.125 -28 42.648438 -25.101562 43.015625 -22.375 C 43.378906 -19.644531 43.5625 -17.320312 43.5625 -15.40625 C 43.5625 -10.269531 42.441406 -6.300781 40.203125 -3.5 C 37.960938 -0.707031 34.242188 0.6875 29.046875 0.6875 C 24.429688 0.6875 20.9375 -0.546875 18.5625 -3.015625 C 16.195312 -5.484375 15.015625 -9.21875 15.015625 -14.21875 C 15.015625 -16.59375 15.273438 -19.257812 15.796875 -22.21875 C 16.328125 -25.1875 17.050781 -28.25 17.96875 -31.40625 C 18.894531 -34.570312 19.953125 -37.601562 21.140625 -40.5 C 22.328125 -43.394531 23.546875 -45.929688 24.796875 -48.109375 L 25.1875 -45.640625 C 24.132812 -45.242188 22.863281 -44.863281 21.375 -44.5 C 19.894531 -44.132812 18.414062 -43.835938 16.9375 -43.609375 C 15.457031 -43.378906 14.125 -43.265625 12.9375 -43.265625 C 8.394531 -43.265625 5.1875 -44.269531 3.3125 -46.28125 C 1.4375 -48.289062 0.5 -51.101562 0.5 -54.71875 C 0.5 -57.820312 1.203125 -60.585938 2.609375 -63.015625 C 4.023438 -65.453125 6.285156 -67.460938 9.390625 -69.046875 C 11.828125 -70.296875 14.789062 -71.203125 18.28125 -71.765625 C 21.769531 -72.328125 26.082031 -72.609375 31.21875 -72.609375 Z M 31.21875 -72.609375 "/></g></g></g><g fill="#ff61f7" fill-opacity="1"><g transform="translate(161.78891, 95.692933)"><g><path d="M 39.3125 -72.703125 C 45.5 -72.703125 49.84375 -71.726562 52.34375 -69.78125 C 54.851562 -67.84375 56.109375 -65.03125 56.109375 -61.34375 C 56.109375 -57.519531 54.640625 -54.671875 51.703125 -52.796875 C 48.773438 -50.921875 44.25 -49.984375 38.125 -49.984375 C 36.082031 -49.984375 33.773438 -50.03125 31.203125 -50.125 C 28.640625 -50.226562 25.941406 -50.410156 23.109375 -50.671875 L 23.609375 -51.46875 C 24.265625 -50.019531 24.59375 -48.472656 24.59375 -46.828125 C 24.59375 -45.179688 24.332031 -43.597656 23.8125 -42.078125 L 22.21875 -42.765625 C 23.675781 -43.160156 25.441406 -43.503906 27.515625 -43.796875 C 29.585938 -44.097656 31.742188 -44.347656 33.984375 -44.546875 C 36.222656 -44.742188 38.265625 -44.84375 40.109375 -44.84375 C 45.109375 -44.84375 48.613281 -44.082031 50.625 -42.5625 C 52.632812 -41.050781 53.640625 -39.175781 53.640625 -36.9375 C 53.640625 -34.507812 52.503906 -32.453125 50.234375 -30.765625 C 47.960938 -29.085938 44.023438 -28.25 38.421875 -28.25 C 35.984375 -28.25 33.347656 -28.378906 30.515625 -28.640625 C 27.691406 -28.910156 24.828125 -29.273438 21.921875 -29.734375 L 23.515625 -30.921875 C 24.109375 -29.929688 24.484375 -28.742188 24.640625 -27.359375 C 24.804688 -25.972656 24.757812 -24.601562 24.5 -23.25 C 24.238281 -21.90625 23.742188 -20.707031 23.015625 -19.65625 L 23.015625 -20.640625 C 24.722656 -21.171875 26.664062 -21.613281 28.84375 -21.96875 C 31.019531 -22.332031 33.257812 -22.613281 35.5625 -22.8125 C 37.863281 -23.007812 40.003906 -23.109375 41.984375 -23.109375 C 46.660156 -23.109375 50.148438 -22.316406 52.453125 -20.734375 C 54.753906 -19.160156 55.90625 -16.597656 55.90625 -13.046875 C 55.90625 -10.734375 55.460938 -8.816406 54.578125 -7.296875 C 53.691406 -5.785156 52.160156 -4.472656 49.984375 -3.359375 C 48.273438 -2.503906 46.117188 -1.78125 43.515625 -1.1875 C 40.910156 -0.59375 38.140625 -0.148438 35.203125 0.140625 C 32.273438 0.441406 29.398438 0.59375 26.578125 0.59375 C 21.367188 0.59375 17.066406 -0.046875 13.671875 -1.328125 C 10.285156 -2.617188 7.835938 -4.484375 6.328125 -6.921875 C 4.941406 -9.285156 3.953125 -12.375 3.359375 -16.1875 C 2.765625 -20.007812 2.46875 -25.25 2.46875 -31.90625 C 2.46875 -38.226562 2.695312 -43.445312 3.15625 -47.5625 C 3.625 -51.675781 4.285156 -55.015625 5.140625 -57.578125 C 5.992188 -60.148438 6.976562 -62.195312 8.09375 -63.71875 C 9.8125 -66.019531 12.25 -67.828125 15.40625 -69.140625 C 18.570312 -70.460938 22.226562 -71.382812 26.375 -71.90625 C 30.519531 -72.4375 34.832031 -72.703125 39.3125 -72.703125 Z M 39.3125 -72.703125 "/></g></g></g><g fill="#ffa8fb" fill-opacity="1"><g transform="translate(218.895558, 95.692933)"><g><path d="M 13.046875 0.984375 C 10.804688 0.984375 8.976562 0.492188 7.5625 -0.484375 C 6.144531 -1.472656 5.140625 -2.957031 4.546875 -4.9375 C 3.953125 -6.914062 3.457031 -10.160156 3.0625 -14.671875 C 2.664062 -19.179688 2.46875 -24.070312 2.46875 -29.34375 C 2.46875 -35 2.613281 -40.507812 2.90625 -45.875 C 3.207031 -51.25 3.753906 -55.976562 4.546875 -60.0625 C 5.265625 -63.75 6.429688 -66.476562 8.046875 -68.25 C 9.660156 -70.03125 12.082031 -70.921875 15.3125 -70.921875 C 17.875 -70.921875 19.992188 -70.378906 21.671875 -69.296875 C 23.359375 -68.210938 24.628906 -66.429688 25.484375 -63.953125 C 26.335938 -61.484375 26.765625 -58.175781 26.765625 -54.03125 C 26.765625 -53.039062 26.75 -51.984375 26.71875 -50.859375 C 26.6875 -49.742188 26.601562 -48.5625 26.46875 -47.3125 L 26.875 -47.3125 C 29.832031 -53.832031 32.789062 -58.90625 35.75 -62.53125 C 38.71875 -66.15625 41.617188 -68.691406 44.453125 -70.140625 C 47.285156 -71.585938 49.953125 -72.3125 52.453125 -72.3125 C 55.546875 -72.3125 57.929688 -71.253906 59.609375 -69.140625 C 61.296875 -67.035156 62.140625 -64.4375 62.140625 -61.34375 C 62.140625 -57 60.242188 -52.882812 56.453125 -49 C 52.671875 -45.113281 46.5 -40.929688 37.9375 -36.453125 L 38.71875 -39.015625 C 46.164062 -34.015625 51.597656 -29.289062 55.015625 -24.84375 C 58.441406 -20.394531 60.15625 -15.703125 60.15625 -10.765625 C 60.15625 -7.535156 59.132812 -4.945312 57.09375 -3 C 55.050781 -1.0625 52.1875 -0.09375 48.5 -0.09375 C 45.34375 -0.09375 42.378906 -1.015625 39.609375 -2.859375 C 36.847656 -4.703125 34.3125 -7.710938 32 -11.890625 C 29.695312 -16.078125 27.625 -21.695312 25.78125 -28.75 L 25.390625 -28.75 C 25.453125 -27.894531 25.5 -27.019531 25.53125 -26.125 C 25.5625 -25.238281 25.546875 -24.367188 25.484375 -23.515625 C 25.484375 -14.753906 24.578125 -8.476562 22.765625 -4.6875 C 20.953125 -0.90625 17.710938 0.984375 13.046875 0.984375 Z M 13.046875 0.984375 "/></g></g></g></g></g></svg>