<svg xmlns="http://www.w3.org/2000/svg" xmlns:xlink="http://www.w3.org/1999/xlink" width="181" zoomAndPan="magnify" viewBox="0 0 135.75 145.500001" height="194" preserveAspectRatio="xMidYMid meet" version="1.0"><defs><clipPath id="61c85fa45d"><path d="M 0.109375 0 L 135.394531 0 L 135.394531 145 L 0.109375 145 Z M 0.109375 0 " clip-rule="nonzero"/></clipPath><clipPath id="e85baf1918"><path d="M 17 16 L 122 16 L 122 121 L 17 121 Z M 17 16 " clip-rule="nonzero"/></clipPath><clipPath id="e1a749562e"><path d="M 4.082031 34.320312 L 103.515625 3.019531 L 134.816406 102.457031 L 35.382812 133.757812 Z M 4.082031 34.320312 " clip-rule="nonzero"/></clipPath><clipPath id="2cdc997851"><path d="M 53.796875 18.671875 C 26.339844 27.3125 11.085938 56.582031 19.730469 84.039062 C 28.375 111.496094 57.640625 126.75 85.097656 118.105469 C 112.558594 109.460938 127.808594 80.195312 119.167969 52.738281 C 110.523438 25.28125 81.257812 10.027344 53.796875 18.671875 Z M 53.796875 18.671875 " clip-rule="nonzero"/></clipPath><clipPath id="6d8d5e26a5"><path d="M 0 0 L 105 0 L 105 105 L 0 105 Z M 0 0 " clip-rule="nonzero"/></clipPath><clipPath id="74aa560821"><path d="M -12.917969 18.320312 L 86.515625 -12.980469 L 117.816406 86.457031 L 18.382812 117.757812 Z M -12.917969 18.320312 " clip-rule="nonzero"/></clipPath><clipPath id="bdea01bc55"><path d="M 36.796875 2.671875 C 9.339844 11.3125 -5.914062 40.582031 2.730469 68.039062 C 11.375 95.496094 40.640625 110.75 68.097656 102.105469 C 95.558594 93.460938 110.808594 64.195312 102.167969 36.738281 C 93.523438 9.28125 64.257812 -5.972656 36.796875 2.671875 Z M 36.796875 2.671875 " clip-rule="nonzero"/></clipPath><clipPath id="44f3ebcb0e"><rect x="0" width="105" y="0" height="105"/></clipPath><clipPath id="71ff2d92bf"><path d="M 13 14 L 118 14 L 118 119 L 13 119 Z M 13 14 " clip-rule="nonzero"/></clipPath><clipPath id="56dbc761da"><path d="M 0.109375 32.25 L 99.542969 0.949219 L 130.84375 100.386719 L 31.410156 131.6875 Z M 0.109375 32.25 " clip-rule="nonzero"/></clipPath><clipPath id="c83d28f551"><path d="M 49.824219 16.601562 C 22.367188 25.242188 7.117188 54.511719 15.757812 81.96875 C 24.402344 109.425781 53.667969 124.679688 81.125 116.035156 C 108.585938 107.390625 123.835938 78.125 115.195312 50.667969 C 106.550781 23.210938 77.285156 7.957031 49.824219 16.601562 Z M 49.824219 16.601562 " clip-rule="nonzero"/></clipPath><clipPath id="93ba4e2273"><path d="M 0 0 L 105 0 L 105 105 L 0 105 Z M 0 0 " clip-rule="nonzero"/></clipPath><clipPath id="fff5d071e6"><path d="M -12.890625 18.25 L 86.542969 -13.050781 L 117.84375 86.386719 L 18.410156 117.6875 Z M -12.890625 18.25 " clip-rule="nonzero"/></clipPath><clipPath id="41dd2f4965"><path d="M 36.824219 2.601562 C 9.367188 11.242188 -5.882812 40.511719 2.757812 67.96875 C 11.402344 95.425781 40.667969 110.679688 68.125 102.035156 C 95.585938 93.390625 110.835938 64.125 102.195312 36.667969 C 93.550781 9.210938 64.285156 -6.042969 36.824219 2.601562 Z M 36.824219 2.601562 " clip-rule="nonzero"/></clipPath><clipPath id="2af49185c7"><rect x="0" width="105" y="0" height="105"/></clipPath><clipPath id="a0f75973a4"><path d="M 13 14 L 118 14 L 118 119 L 13 119 Z M 13 14 " clip-rule="nonzero"/></clipPath><clipPath id="f35ea4fdbc"><path d="M 0.109375 32.25 L 99.371094 1.003906 L 130.617188 100.265625 L 31.355469 131.511719 Z M 0.109375 32.25 " clip-rule="nonzero"/></clipPath><clipPath id="c20e5802d2"><path d="M 0.109375 32.25 L 99.539062 0.953125 L 130.839844 100.382812 L 31.40625 131.683594 Z M 0.109375 32.25 " clip-rule="nonzero"/></clipPath><clipPath id="d7099e1afe"><path d="M 49.824219 16.601562 C 22.367188 25.246094 7.113281 54.507812 15.757812 81.964844 C 24.402344 109.421875 53.667969 124.675781 81.125 116.03125 C 108.582031 107.390625 123.832031 78.125 115.191406 50.667969 C 106.546875 23.210938 77.28125 7.957031 49.824219 16.601562 Z M 49.824219 16.601562 " clip-rule="nonzero"/></clipPath><clipPath id="30debe3b4c"><path d="M 38 41 L 97 41 L 97 85 L 38 85 Z M 38 41 " clip-rule="nonzero"/></clipPath><clipPath id="a98d4c801b"><path d="M 33.484375 57 L 86.566406 40.289062 L 97.707031 75.675781 L 44.621094 92.386719 Z M 33.484375 57 " clip-rule="nonzero"/></clipPath><clipPath id="a379e7e4d6"><path d="M 33.484375 57 L 86.566406 40.289062 L 97.707031 75.675781 L 44.621094 92.386719 Z M 33.484375 57 " clip-rule="nonzero"/></clipPath><clipPath id="c4c98b505b"><rect x="0" width="136" y="0" height="145"/></clipPath></defs><g clip-path="url(#61c85fa45d)"><g transform="matrix(1, 0, 0, 1, 0, -0.000000000000017523)"><g clip-path="url(#c4c98b505b)"><g clip-path="url(#e85baf1918)"><g clip-path="url(#e1a749562e)"><g clip-path="url(#2cdc997851)"><g transform="matrix(1, 0, 0, 1, 17, 16)"><g clip-path="url(#44f3ebcb0e)"><g clip-path="url(#6d8d5e26a5)"><g clip-path="url(#74aa560821)"><g clip-path="url(#bdea01bc55)"><path fill="#000000" d="M -12.917969 18.320312 L 86.515625 -12.980469 L 117.816406 86.457031 L 18.382812 117.757812 Z M -12.917969 18.320312 " fill-opacity="1" fill-rule="nonzero"/></g></g></g></g></g></g></g></g><g clip-path="url(#71ff2d92bf)"><g clip-path="url(#56dbc761da)"><g clip-path="url(#c83d28f551)"><g transform="matrix(1, 0, 0, 1, 13, 14)"><g clip-path="url(#2af49185c7)"><g clip-path="url(#93ba4e2273)"><g clip-path="url(#fff5d071e6)"><g clip-path="url(#41dd2f4965)"><path fill="#d1fe1e" d="M -12.890625 18.25 L 86.542969 -13.050781 L 117.84375 86.386719 L 18.410156 117.6875 Z M -12.890625 18.25 " fill-opacity="1" fill-rule="nonzero"/></g></g></g></g></g></g></g></g><g clip-path="url(#a0f75973a4)"><g clip-path="url(#f35ea4fdbc)"><g clip-path="url(#c20e5802d2)"><g clip-path="url(#d7099e1afe)"><path stroke-linecap="butt" transform="matrix(0.431577, -0.135853, 0.135853, 0.431577, 0.108446, 32.250772)" fill="none" stroke-linejoin="miter" d="M 115.195184 0.00097928 C 51.573993 0.00420054 -0.00274139 51.570512 0.000479867 115.191703 C 0.00370113 178.812894 51.578248 230.392221 115.199439 230.389 C 178.818037 230.394013 230.389129 178.816874 230.394143 115.198276 C 230.390922 51.577085 178.816375 -0.00224198 115.195184 0.00097928 Z M 115.195184 0.00097928 " stroke="#000000" stroke-width="13.215584" stroke-opacity="1" stroke-miterlimit="4"/></g></g></g></g><g clip-path="url(#30debe3b4c)"><g clip-path="url(#a98d4c801b)"><g clip-path="url(#a379e7e4d6)"><path fill="#030000" d="M 61.292969 53.039062 L 69.617188 79.476562 C 69.859375 80.234375 69.882812 81 69.691406 81.773438 C 69.5 82.546875 69.121094 83.210938 68.550781 83.769531 C 67.984375 84.328125 67.308594 84.695312 66.535156 84.871094 C 65.757812 85.050781 64.992188 85.007812 64.238281 84.753906 L 41.738281 77.371094 C 41.417969 77.265625 41.121094 77.125 40.835938 76.949219 C 40.554688 76.773438 40.296875 76.566406 40.0625 76.328125 C 39.828125 76.089844 39.625 75.828125 39.453125 75.542969 C 39.28125 75.257812 39.144531 74.953125 39.042969 74.636719 C 38.945312 74.316406 38.882812 73.992188 38.859375 73.660156 C 38.835938 73.328125 38.851562 72.996094 38.910156 72.667969 C 38.964844 72.339844 39.058594 72.019531 39.1875 71.714844 C 39.320312 71.40625 39.484375 71.117188 39.683594 70.851562 L 53.863281 51.792969 C 54.335938 51.152344 54.9375 50.683594 55.675781 50.382812 C 56.414062 50.082031 57.175781 50 57.960938 50.128906 C 58.746094 50.261719 59.441406 50.589844 60.039062 51.113281 C 60.640625 51.636719 61.058594 52.277344 61.292969 53.039062 Z M 80.300781 43.472656 L 66.121094 62.527344 C 65.921875 62.796875 65.757812 63.085938 65.625 63.390625 C 65.496094 63.699219 65.402344 64.015625 65.347656 64.34375 C 65.289062 64.675781 65.273438 65.003906 65.296875 65.335938 C 65.320312 65.671875 65.382812 65.996094 65.480469 66.3125 C 65.582031 66.632812 65.71875 66.933594 65.890625 67.21875 C 66.0625 67.507812 66.265625 67.769531 66.5 68.007812 C 66.734375 68.242188 66.992188 68.453125 67.273438 68.628906 C 67.558594 68.804688 67.855469 68.945312 68.175781 69.050781 L 90.710938 76.546875 C 91.464844 76.804688 92.230469 76.84375 93.007812 76.667969 C 93.785156 76.492188 94.457031 76.125 95.027344 75.566406 C 95.59375 75.007812 95.972656 74.34375 96.164062 73.570312 C 96.355469 72.796875 96.332031 72.03125 96.089844 71.273438 L 87.769531 44.835938 C 87.550781 44.058594 87.144531 43.394531 86.546875 42.851562 C 85.953125 42.304688 85.253906 41.960938 84.460938 41.816406 C 83.667969 41.671875 82.894531 41.75 82.144531 42.046875 C 81.394531 42.347656 80.777344 42.820312 80.300781 43.472656 Z M 80.300781 43.472656 " fill-opacity="1" fill-rule="nonzero"/></g></g></g></g></g></g></svg>