<svg xmlns="http://www.w3.org/2000/svg" xmlns:xlink="http://www.w3.org/1999/xlink" width="245" zoomAndPan="magnify" viewBox="0 0 183.75 83.999999" height="112" preserveAspectRatio="xMidYMid meet" version="1.0"><defs><clipPath id="fa864e7ed5"><path d="M 0 0.0585938 L 183.5 0.0585938 L 183.5 61.472656 L 0 61.472656 Z M 0 0.0585938 " clip-rule="nonzero"/></clipPath></defs><path fill="#2a7ce0" d="M 34.351562 43.867188 L 1.871094 19.246094 L 12.1875 5.625 L 34.351562 22.429688 L 61.675781 1.714844 L 89 22.429688 L 116.324219 1.714844 L 143.652344 22.429688 L 165.824219 5.625 L 176.136719 19.246094 L 143.652344 43.867188 L 116.324219 23.152344 L 89 43.867188 L 61.675781 23.15625 Z M 34.351562 43.867188 L 1.871094 19.246094 L 12.1875 5.625 L 34.351562 22.429688 L 61.675781 1.714844 L 89 22.429688 L 116.324219 1.714844 L 143.652344 22.429688 L 165.824219 5.625 L 176.136719 19.246094 L 143.652344 43.867188 L 116.324219 23.152344 L 89 43.867188 L 61.675781 23.15625 Z M 34.351562 43.867188 " fill-opacity="1" fill-rule="nonzero"/><g clip-path="url(#fa864e7ed5)"><path fill="#000000" d="M 183.050781 34.265625 L 174.242188 22.632812 L 177.074219 20.484375 C 177.402344 20.234375 177.621094 19.867188 177.675781 19.457031 C 177.734375 19.050781 177.625 18.636719 177.375 18.308594 L 167.0625 4.6875 C 166.542969 4 165.570312 3.867188 164.886719 4.386719 L 143.652344 20.480469 L 117.261719 0.476562 C 116.707031 0.0546875 115.941406 0.0546875 115.386719 0.476562 L 89 20.480469 L 62.613281 0.476562 C 62.058594 0.0546875 61.292969 0.0546875 60.738281 0.476562 L 34.351562 20.480469 L 13.125 4.386719 C 12.796875 4.136719 12.382812 4.027344 11.976562 4.085938 C 11.566406 4.140625 11.199219 4.359375 10.949219 4.6875 L 0.632812 18.304688 C 0.117188 18.988281 0.25 19.964844 0.933594 20.484375 L 10.976562 28.097656 L 6.308594 34.265625 C 5.789062 34.949219 5.921875 35.921875 6.605469 36.441406 L 39.085938 61.066406 C 39.363281 61.273438 39.695312 61.378906 40.023438 61.378906 C 40.355469 61.378906 40.6875 61.273438 40.964844 61.066406 L 67.347656 41.0625 L 93.738281 61.066406 C 94.289062 61.484375 95.058594 61.484375 95.613281 61.066406 L 122 41.0625 L 148.390625 61.0625 C 148.941406 61.484375 149.710938 61.484375 150.265625 61.0625 L 182.75 36.441406 C 183.078125 36.191406 183.292969 35.824219 183.347656 35.414062 C 183.40625 35.007812 183.296875 34.59375 183.050781 34.265625 Z M 12.488281 7.800781 L 33.414062 23.667969 C 33.96875 24.085938 34.734375 24.085938 35.289062 23.667969 L 61.675781 3.664062 L 88.0625 23.667969 C 88.617188 24.085938 89.382812 24.085938 89.9375 23.667969 L 116.324219 3.664062 L 142.714844 23.667969 C 143.269531 24.085938 144.035156 24.085938 144.589844 23.667969 L 165.523438 7.800781 L 173.960938 18.945312 L 143.652344 41.917969 L 117.261719 21.917969 C 116.710938 21.496094 115.941406 21.496094 115.386719 21.917969 L 89 41.917969 L 62.613281 21.917969 C 62.058594 21.496094 61.292969 21.496094 60.738281 21.917969 L 34.351562 41.917969 L 4.046875 18.945312 Z M 12.488281 7.800781 " fill-opacity="1" fill-rule="nonzero"/></g></svg>