<svg xmlns="http://www.w3.org/2000/svg" xmlns:xlink="http://www.w3.org/1999/xlink" width="217" zoomAndPan="magnify" viewBox="0 0 162.75 83.999999" height="112" preserveAspectRatio="xMidYMid meet" version="1.0"><defs><g/><clipPath id="d424d3d82c"><path d="M 0 0.0625 L 162.5 0.0625 L 162.5 79 L 0 79 Z M 0 0.0625 " clip-rule="nonzero"/></clipPath><clipPath id="726f790577"><path d="M 13 18 L 162 18 L 162 71 L 13 71 Z M 13 18 " clip-rule="nonzero"/></clipPath><clipPath id="b96912ced6"><path d="M 13.730469 31.066406 L 158.476562 18.835938 L 161.816406 58.347656 L 17.070312 70.578125 Z M 13.730469 31.066406 " clip-rule="nonzero"/></clipPath><clipPath id="3a78a202a7"><path d="M 0.660156 0.753906 L 148.992188 0.753906 L 148.992188 52.753906 L 0.660156 52.753906 Z M 0.660156 0.753906 " clip-rule="nonzero"/></clipPath><clipPath id="00c957905f"><path d="M 0.730469 13.066406 L 145.476562 0.835938 L 148.816406 40.347656 L 4.070312 52.578125 Z M 0.730469 13.066406 " clip-rule="nonzero"/></clipPath><clipPath id="8ccb34638c"><rect x="0" width="149" y="0" height="53"/></clipPath><clipPath id="75764b01a1"><path d="M 6 13 L 155 13 L 155 65 L 6 65 Z M 6 13 " clip-rule="nonzero"/></clipPath><clipPath id="4608e0c5df"><path d="M 6.910156 25.308594 L 151.652344 13.078125 L 154.992188 52.589844 L 10.246094 64.820312 Z M 6.910156 25.308594 " clip-rule="nonzero"/></clipPath><clipPath id="64a1e0d850"><path d="M 0.710938 0.00390625 L 149 0.00390625 L 149 52 L 0.710938 52 Z M 0.710938 0.00390625 " clip-rule="nonzero"/></clipPath><clipPath id="5ffd62733b"><path d="M 0.910156 12.308594 L 145.652344 0.078125 L 148.992188 39.589844 L 4.246094 51.820312 Z M 0.910156 12.308594 " clip-rule="nonzero"/></clipPath><clipPath id="aec1e7d0a5"><rect x="0" width="149" y="0" height="52"/></clipPath><clipPath id="7adbec83f3"><path d="M 6 13 L 155 13 L 155 65 L 6 65 Z M 6 13 " clip-rule="nonzero"/></clipPath><clipPath id="ea8bcfcd08"><path d="M 6.910156 25.308594 L 151.617188 13.078125 L 154.941406 52.402344 L 10.230469 64.628906 Z M 6.910156 25.308594 " clip-rule="nonzero"/></clipPath><clipPath id="f383cc3712"><path d="M 6.914062 25.308594 L 151.644531 13.078125 L 154.984375 52.585938 L 10.25 64.816406 Z M 6.914062 25.308594 " clip-rule="nonzero"/></clipPath><clipPath id="4916fa8e95"><rect x="0" width="163" y="0" height="79"/></clipPath></defs><g clip-path="url(#d424d3d82c)"><g transform="matrix(1, 0, 0, 1, 0, -0.000000000000001082)"><g clip-path="url(#4916fa8e95)"><g clip-path="url(#726f790577)"><g clip-path="url(#b96912ced6)"><g transform="matrix(1, 0, 0, 1, 13, 18)"><g clip-path="url(#8ccb34638c)"><g clip-path="url(#3a78a202a7)"><g clip-path="url(#00c957905f)"><path fill="#000000" d="M 0.730469 13.066406 L 145.503906 0.835938 L 148.84375 40.347656 L 4.070312 52.578125 Z M 0.730469 13.066406 " fill-opacity="1" fill-rule="nonzero"/></g></g></g></g></g></g><g clip-path="url(#75764b01a1)"><g clip-path="url(#4608e0c5df)"><g transform="matrix(1, 0, 0, 1, 6, 13)"><g clip-path="url(#aec1e7d0a5)"><g clip-path="url(#64a1e0d850)"><g clip-path="url(#5ffd62733b)"><path fill="#ff61f7" d="M 0.910156 12.308594 L 145.679688 0.0742188 L 149.019531 39.585938 L 4.246094 51.820312 Z M 0.910156 12.308594 " fill-opacity="1" fill-rule="nonzero"/></g></g></g></g></g></g><g clip-path="url(#7adbec83f3)"><g clip-path="url(#ea8bcfcd08)"><g clip-path="url(#f383cc3712)"><path stroke-linecap="butt" transform="matrix(0.393232, -0.0332271, 0.0332271, 0.393232, 6.908964, 25.307558)" fill="none" stroke-linejoin="miter" d="M 0.0126517 0.0037037 L 368.066764 0.00095575 L 368.070621 100.470822 L 0.00664546 100.472737 Z M 0.0126517 0.0037037 " stroke="#000000" stroke-width="15.180678" stroke-opacity="1" stroke-miterlimit="4"/></g></g></g><g fill="#ffffff" fill-opacity="1"><g transform="translate(16.574947, 54.090339)"><g><path d="M 6.71875 -0.5625 L 0.921875 -0.078125 L -0.828125 -20.75 L 11.234375 -21.765625 C 13.972656 -21.992188 16.09375 -21.617188 17.59375 -20.640625 C 19.101562 -19.660156 19.941406 -18.164062 20.109375 -16.15625 C 20.253906 -14.519531 19.925781 -13.179688 19.125 -12.140625 C 18.332031 -11.109375 16.957031 -10.382812 15 -9.96875 L 15.03125 -9.65625 C 16.125 -9.476562 16.925781 -9.144531 17.4375 -8.65625 C 17.945312 -8.175781 18.429688 -7.5625 18.890625 -6.8125 L 21.875 -1.84375 L 15.1875 -1.28125 L 12.296875 -6.140625 C 11.992188 -6.640625 11.695312 -7.015625 11.40625 -7.265625 C 11.113281 -7.523438 10.75 -7.691406 10.3125 -7.765625 C 9.875 -7.847656 9.273438 -7.859375 8.515625 -7.796875 L 6.125 -7.59375 Z M 5.40625 -16.015625 L 5.765625 -11.90625 L 11.96875 -12.4375 C 12.820312 -12.507812 13.410156 -12.679688 13.734375 -12.953125 C 14.066406 -13.234375 14.191406 -13.816406 14.109375 -14.703125 C 14.046875 -15.523438 13.828125 -16.054688 13.453125 -16.296875 C 13.078125 -16.535156 12.460938 -16.617188 11.609375 -16.546875 Z M 5.40625 -16.015625 "/></g></g></g><g fill="#ffffff" fill-opacity="1"><g transform="translate(38.452151, 52.241767)"><g><path d="M 19.296875 -1.625 L 0.921875 -0.078125 L -0.828125 -20.75 L 17.546875 -22.296875 L 17.984375 -17.078125 L 5.40625 -16.015625 L 5.625 -13.546875 L 17.734375 -14.578125 L 18.171875 -9.390625 L 6.0625 -8.359375 L 6.28125 -5.78125 L 18.859375 -6.84375 Z M 19.296875 -1.625 "/></g></g></g><g fill="#ffffff" fill-opacity="1"><g transform="translate(58.44711, 50.552241)"><g><path d="M 13.203125 -1.109375 L 4.59375 -0.390625 L -1.46875 -20.703125 L 5 -21.25 L 7.625 -10.875 L 8.578125 -6.265625 L 8.96875 -6.296875 L 9.421875 -11.03125 L 11.296875 -21.78125 L 20.03125 -22.515625 L 23.453125 -12.203125 L 24.578125 -7.609375 L 24.984375 -7.65625 L 25.21875 -12.359375 L 26.28125 -23.046875 L 32.625 -23.578125 L 29.65625 -2.5 L 21.046875 -1.78125 L 18.140625 -10.453125 L 16.234375 -16.8125 L 15.828125 -16.78125 L 14.921875 -10.1875 Z M 13.203125 -1.109375 "/></g></g></g><g fill="#ffffff" fill-opacity="1"><g transform="translate(93.098873, 47.62425)"><g><path d="M 6.71875 -0.5625 L 0.921875 -0.078125 L -0.828125 -20.75 L 4.96875 -21.234375 Z M 6.71875 -0.5625 "/></g></g></g><g fill="#ffffff" fill-opacity="1"><g transform="translate(100.751267, 46.977641)"><g><path d="M 6.71875 -0.5625 L 0.921875 -0.078125 L -0.828125 -20.75 L 5.34375 -21.265625 L 11.75 -14 L 15.171875 -9.515625 L 15.578125 -9.546875 L 14.90625 -14.03125 L 14.234375 -22.015625 L 20.03125 -22.515625 L 21.78125 -1.84375 L 15.609375 -1.3125 L 8.828125 -8.75 L 5.859375 -12.609375 L 5.46875 -12.578125 L 6.03125 -8.640625 Z M 6.71875 -0.5625 "/></g></g></g><g fill="#ffffff" fill-opacity="1"><g transform="translate(123.461586, 45.058673)"><g><path d="M 11.71875 -0.984375 L 1.265625 -0.109375 L -0.484375 -20.78125 L 9.96875 -21.65625 C 12.257812 -21.851562 14.269531 -21.613281 16 -20.9375 C 17.726562 -20.269531 19.113281 -19.203125 20.15625 -17.734375 C 21.195312 -16.273438 21.8125 -14.457031 22 -12.28125 C 22.1875 -10.09375 21.890625 -8.1875 21.109375 -6.5625 C 20.328125 -4.945312 19.140625 -3.660156 17.546875 -2.703125 C 15.953125 -1.753906 14.007812 -1.179688 11.71875 -0.984375 Z M 10.40625 -16.4375 L 5.75 -16.046875 L 6.625 -5.8125 L 11.28125 -6.203125 C 12.519531 -6.304688 13.488281 -6.492188 14.1875 -6.765625 C 14.882812 -7.035156 15.359375 -7.546875 15.609375 -8.296875 C 15.859375 -9.046875 15.914062 -10.195312 15.78125 -11.75 C 15.644531 -13.3125 15.394531 -14.4375 15.03125 -15.125 C 14.664062 -15.820312 14.113281 -16.238281 13.375 -16.375 C 12.632812 -16.519531 11.644531 -16.539062 10.40625 -16.4375 Z M 10.40625 -16.4375 "/></g></g></g></g></g></g></svg>