<svg xmlns="http://www.w3.org/2000/svg" xmlns:xlink="http://www.w3.org/1999/xlink" width="174" zoomAndPan="magnify" viewBox="0 0 130.5 205.499992" height="274" preserveAspectRatio="xMidYMid meet" version="1.0"><defs><clipPath id="c00be8201a"><path d="M 0 127.023438 L 82.933594 127.023438 L 82.933594 203.980469 L 0 203.980469 Z M 0 127.023438 " clip-rule="nonzero"/></clipPath><clipPath id="5857b5aac0"><path d="M 10 11 L 116 11 L 116 111 L 10 111 Z M 10 11 " clip-rule="nonzero"/></clipPath><clipPath id="1e0f53ad95"><path d="M 0 26.894531 L 101.917969 0.234375 L 126.878906 95.644531 L 24.960938 122.304688 Z M 0 26.894531 " clip-rule="nonzero"/></clipPath><clipPath id="8a8276de52"><path d="M 0 26.894531 L 101.917969 0.234375 L 126.878906 95.644531 L 24.960938 122.304688 Z M 0 26.894531 " clip-rule="nonzero"/></clipPath><clipPath id="97ebc3ab21"><path d="M 0 26.894531 L 101.917969 0.234375 L 126.878906 95.644531 L 24.960938 122.304688 Z M 0 26.894531 " clip-rule="nonzero"/></clipPath><clipPath id="61ba53750a"><path d="M 12 13 L 108 13 L 108 106 L 12 106 Z M 12 13 " clip-rule="nonzero"/></clipPath><clipPath id="b9a6405df5"><path d="M 0 26.894531 L 101.917969 0.234375 L 126.878906 95.644531 L 24.960938 122.304688 Z M 0 26.894531 " clip-rule="nonzero"/></clipPath><clipPath id="a59431a6eb"><path d="M 0 26.894531 L 101.917969 0.234375 L 126.878906 95.644531 L 24.960938 122.304688 Z M 0 26.894531 " clip-rule="nonzero"/></clipPath><clipPath id="81ef1d5067"><path d="M 0 26.894531 L 101.917969 0.234375 L 126.878906 95.644531 L 24.960938 122.304688 Z M 0 26.894531 " clip-rule="nonzero"/></clipPath></defs><g clip-path="url(#c00be8201a)"><path fill="#000000" d="M 82.265625 160.507812 C 81.832031 160.003906 81.203125 159.714844 80.539062 159.707031 L 80.421875 159.710938 L 78.960938 159.78125 L 79.097656 158.804688 C 79.1875 158.148438 78.992188 157.488281 78.554688 156.988281 C 78.121094 156.488281 77.492188 156.195312 76.828125 156.191406 L 76.710938 156.191406 L 58.140625 157.070312 L 70.914062 143.902344 L 70.960938 143.851562 C 71.417969 143.34375 71.625 142.664062 71.53125 141.988281 C 71.433594 141.316406 71.042969 140.722656 70.460938 140.359375 L 67.839844 138.742188 C 67.839844 138.652344 67.832031 138.5625 67.820312 138.472656 C 67.722656 137.796875 67.332031 137.203125 66.75 136.84375 L 54.015625 128.96875 C 53.648438 128.742188 53.226562 128.621094 52.792969 128.621094 C 51.882812 128.621094 51.066406 129.144531 50.6875 129.964844 L 41.15625 149.464844 L 32.886719 131.867188 L 32.875 131.847656 C 32.492188 131.054688 31.671875 130.542969 30.789062 130.542969 C 30.601562 130.542969 30.417969 130.566406 30.238281 130.609375 L 29.175781 128.347656 L 29.164062 128.328125 C 28.78125 127.535156 27.964844 127.023438 27.078125 127.023438 C 26.617188 127.023438 26.167969 127.160156 25.785156 127.417969 L 13.375 135.738281 C 12.820312 136.109375 12.457031 136.699219 12.371094 137.355469 C 12.285156 138.007812 12.488281 138.664062 12.921875 139.160156 L 27.492188 155.902344 L 5.027344 150.046875 C 4.835938 149.992188 4.632812 149.96875 4.433594 149.96875 C 3.28125 149.96875 2.296875 150.824219 2.140625 151.957031 L 0.117188 166.574219 C 0.0234375 167.230469 0.222656 167.894531 0.660156 168.398438 C 1.101562 168.898438 1.734375 169.1875 2.402344 169.1875 L 2.410156 169.1875 C 2.410156 169.1875 3.949219 169.1875 3.949219 169.1875 L 3.824219 170.09375 C 3.734375 170.75 3.933594 171.414062 4.371094 171.914062 C 4.808594 172.417969 5.445312 172.707031 6.113281 172.707031 L 6.121094 172.707031 C 6.121094 172.707031 25.746094 172.703125 25.746094 172.703125 L 13.292969 187.066406 C 12.847656 187.574219 12.652344 188.246094 12.75 188.910156 C 12.851562 189.582031 13.242188 190.167969 13.820312 190.527344 L 16.4375 192.144531 C 16.441406 192.238281 16.449219 192.335938 16.460938 192.429688 C 16.5625 193.097656 16.949219 193.6875 17.527344 194.046875 L 30.261719 201.917969 C 30.628906 202.144531 31.054688 202.265625 31.484375 202.265625 C 32.429688 202.265625 33.269531 201.703125 33.628906 200.835938 L 41.46875 182.015625 L 48.582031 199.066406 L 48.648438 199.210938 C 49.046875 199.984375 49.839844 200.464844 50.710938 200.464844 C 50.9375 200.464844 51.15625 200.429688 51.367188 200.367188 L 52.292969 202.585938 L 52.359375 202.726562 C 52.757812 203.5 53.546875 203.980469 54.421875 203.980469 C 54.882812 203.980469 55.328125 203.847656 55.707031 203.59375 L 67.828125 195.546875 C 68.386719 195.175781 68.753906 194.582031 68.839844 193.921875 C 68.917969 193.296875 68.738281 192.671875 68.34375 192.1875 L 54.519531 174.007812 L 77.957031 178.867188 C 78.132812 178.910156 78.3125 178.929688 78.488281 178.929688 C 79.640625 178.929688 80.628906 178.074219 80.785156 176.941406 L 82.808594 162.324219 C 82.898438 161.667969 82.699219 161.007812 82.265625 160.503906 Z M 82.265625 160.507812 " fill-opacity="1" fill-rule="nonzero"/></g><path fill="#bafca2" d="M 50.710938 199.019531 C 50.386719 199.019531 50.089844 198.839844 49.941406 198.550781 L 49.925781 198.515625 L 38.875 172.042969 L 28.574219 196.769531 C 28.445312 197.09375 28.128906 197.304688 27.773438 197.304688 C 27.613281 197.304688 27.457031 197.257812 27.320312 197.175781 L 14.585938 189.300781 C 14.371094 189.167969 14.222656 188.949219 14.1875 188.699219 C 14.148438 188.449219 14.222656 188.195312 14.390625 188.007812 L 31.964844 167.738281 L 2.410156 167.746094 C 2.15625 167.746094 1.921875 167.636719 1.757812 167.449219 C 1.59375 167.261719 1.519531 167.015625 1.554688 166.769531 L 3.578125 152.152344 C 3.636719 151.730469 4.003906 151.410156 4.433594 151.410156 C 4.511719 151.410156 4.585938 151.421875 4.664062 151.441406 L 31.652344 158.476562 L 14.015625 138.210938 C 13.855469 138.03125 13.777344 137.78125 13.8125 137.539062 C 13.84375 137.292969 13.980469 137.070312 14.183594 136.933594 L 26.597656 128.613281 C 26.738281 128.519531 26.90625 128.46875 27.078125 128.46875 C 27.410156 128.46875 27.714844 128.660156 27.859375 128.953125 L 40.082031 154.964844 L 52 130.574219 C 52.140625 130.265625 52.449219 130.066406 52.792969 130.066406 C 52.953125 130.066406 53.113281 130.109375 53.25 130.195312 L 65.984375 138.066406 C 66.199219 138.203125 66.347656 138.421875 66.382812 138.675781 C 66.417969 138.925781 66.339844 139.179688 66.171875 139.371094 L 66.15625 139.382812 L 47.089844 159.039062 L 76.78125 157.632812 L 76.8125 157.632812 C 77.058594 157.632812 77.296875 157.742188 77.457031 157.929688 C 77.621094 158.117188 77.691406 158.363281 77.660156 158.609375 L 75.636719 173.226562 C 75.578125 173.648438 75.210938 173.96875 74.78125 173.96875 C 74.707031 173.96875 74.636719 173.960938 74.566406 173.941406 L 47.320312 168.292969 L 63.492188 189.5625 C 63.648438 189.742188 63.71875 189.984375 63.6875 190.222656 C 63.65625 190.46875 63.519531 190.691406 63.3125 190.828125 L 51.191406 198.875 C 51.050781 198.96875 50.882812 199.019531 50.710938 199.019531 Z M 50.710938 199.019531 " fill-opacity="1" fill-rule="nonzero"/><g clip-path="url(#5857b5aac0)"><g clip-path="url(#1e0f53ad95)"><g clip-path="url(#8a8276de52)"><g clip-path="url(#97ebc3ab21)"><path fill="#000000" d="M 111.960938 41.957031 C 111.265625 41.476562 110.394531 41.316406 109.578125 41.523438 L 109.4375 41.5625 L 107.664062 42.117188 L 107.515625 40.867188 C 107.414062 40.023438 106.957031 39.265625 106.257812 38.785156 C 105.5625 38.304688 104.695312 38.148438 103.875 38.351562 L 103.734375 38.394531 L 81.195312 45.457031 L 92.621094 25.023438 L 92.664062 24.941406 C 93.0625 24.164062 93.097656 23.257812 92.757812 22.449219 C 92.421875 21.644531 91.75 21.035156 90.917969 20.773438 L 87.171875 19.609375 C 87.140625 19.5 87.101562 19.390625 87.058594 19.28125 C 86.71875 18.476562 86.046875 17.863281 85.214844 17.605469 L 67.011719 11.9375 C 66.488281 11.777344 65.929688 11.761719 65.398438 11.902344 C 64.277344 12.195312 63.445312 13.105469 63.246094 14.242188 L 57.855469 41.484375 L 41.984375 22.324219 L 41.964844 22.300781 C 41.238281 21.445312 40.066406 21.074219 38.980469 21.359375 C 38.75 21.417969 38.53125 21.507812 38.324219 21.617188 L 36.285156 19.15625 L 36.265625 19.132812 C 35.535156 18.273438 34.363281 17.90625 33.277344 18.1875 C 32.710938 18.335938 32.203125 18.648438 31.816406 19.09375 L 19.257812 33.398438 C 18.699219 34.035156 18.441406 34.882812 18.550781 35.722656 C 18.660156 36.558594 19.121094 37.308594 19.816406 37.785156 L 43.152344 53.855469 L 13.644531 53.820312 C 13.390625 53.816406 13.136719 53.847656 12.886719 53.914062 C 11.472656 54.285156 10.539062 55.660156 10.714844 57.117188 L 12.96875 75.890625 C 13.070312 76.734375 13.527344 77.496094 14.230469 77.976562 C 14.929688 78.457031 15.804688 78.609375 16.625 78.398438 L 16.636719 78.394531 C 16.636719 78.394531 18.53125 77.898438 18.53125 77.898438 L 18.667969 79.058594 C 18.769531 79.90625 19.230469 80.664062 19.933594 81.144531 C 20.632812 81.625 21.507812 81.777344 22.328125 81.566406 L 22.335938 81.566406 C 22.335938 81.566406 46.453125 75.25 46.453125 75.25 L 35.804688 97.0625 C 35.425781 97.832031 35.402344 98.730469 35.742188 99.523438 C 36.082031 100.320312 36.75 100.925781 37.578125 101.183594 L 41.320312 102.347656 C 41.355469 102.464844 41.394531 102.578125 41.441406 102.691406 C 41.78125 103.488281 42.453125 104.09375 43.277344 104.351562 L 61.480469 110.019531 C 62.007812 110.183594 62.566406 110.195312 63.097656 110.054688 C 64.257812 109.753906 65.109375 108.785156 65.269531 107.59375 L 68.796875 81.742188 L 83.074219 100.59375 L 83.199219 100.75 C 83.941406 101.582031 85.066406 101.921875 86.140625 101.640625 C 86.417969 101.570312 86.675781 101.457031 86.917969 101.3125 L 88.773438 103.765625 L 88.902344 103.917969 C 89.640625 104.75 90.769531 105.089844 91.84375 104.808594 C 92.40625 104.664062 92.910156 104.351562 93.296875 103.914062 L 105.582031 90.042969 C 106.148438 89.402344 106.410156 88.550781 106.296875 87.703125 C 106.191406 86.902344 105.765625 86.1875 105.125 85.710938 L 82.242188 67.617188 L 112.621094 66.105469 C 112.847656 66.101562 113.074219 66.070312 113.296875 66.011719 C 114.710938 65.640625 115.644531 64.265625 115.46875 62.808594 L 113.214844 44.035156 C 113.113281 43.195312 112.65625 42.4375 111.960938 41.957031 Z M 111.960938 41.957031 " fill-opacity="1" fill-rule="nonzero"/></g></g></g></g><g clip-path="url(#61ba53750a)"><g clip-path="url(#b9a6405df5)"><g clip-path="url(#a59431a6eb)"><g clip-path="url(#81ef1d5067)"><path fill="#bafca2" d="M 85.671875 99.851562 C 85.273438 99.957031 84.851562 99.832031 84.574219 99.519531 L 84.542969 99.480469 L 62.375 70.207031 L 57.738281 104.179688 C 57.679688 104.621094 57.363281 104.984375 56.929688 105.097656 C 56.730469 105.148438 56.519531 105.144531 56.324219 105.082031 L 38.121094 99.417969 C 37.8125 99.320312 37.5625 99.097656 37.4375 98.796875 C 37.308594 98.5 37.320312 98.164062 37.464844 97.875 L 52.484375 67.097656 L 16.167969 76.605469 C 15.859375 76.6875 15.53125 76.628906 15.269531 76.449219 C 15.007812 76.269531 14.835938 75.988281 14.796875 75.671875 L 12.542969 56.898438 C 12.480469 56.355469 12.828125 55.839844 13.355469 55.703125 C 13.449219 55.675781 13.550781 55.664062 13.648438 55.667969 L 49.101562 55.714844 L 20.851562 36.257812 C 20.597656 36.082031 20.421875 35.800781 20.382812 35.488281 C 20.339844 35.171875 20.4375 34.855469 20.644531 34.617188 L 33.199219 20.3125 C 33.34375 20.148438 33.535156 20.03125 33.746094 19.976562 C 34.152344 19.871094 34.589844 20.007812 34.863281 20.328125 L 58.320312 48.648438 L 65.058594 14.578125 C 65.128906 14.148438 65.441406 13.800781 65.863281 13.691406 C 66.0625 13.636719 66.273438 13.644531 66.46875 13.703125 L 84.671875 19.371094 C 84.980469 19.46875 85.230469 19.695312 85.359375 19.996094 C 85.484375 20.296875 85.472656 20.636719 85.324219 20.925781 L 85.3125 20.945312 L 68.257812 51.445312 L 104.289062 40.15625 L 104.324219 40.148438 C 104.628906 40.070312 104.953125 40.128906 105.214844 40.308594 C 105.472656 40.488281 105.644531 40.769531 105.683594 41.085938 L 107.9375 59.859375 C 108.003906 60.402344 107.652344 60.917969 107.125 61.054688 C 107.039062 61.078125 106.945312 61.089844 106.855469 61.089844 L 71.539062 62.847656 L 98.3125 84.015625 C 98.5625 84.191406 98.726562 84.464844 98.765625 84.773438 C 98.808594 85.089844 98.710938 85.40625 98.5 85.644531 L 86.214844 99.519531 C 86.070312 99.683594 85.882812 99.796875 85.671875 99.851562 Z M 85.671875 99.851562 " fill-opacity="1" fill-rule="nonzero"/></g></g></g></g></svg>