<svg xmlns="http://www.w3.org/2000/svg" xmlns:xlink="http://www.w3.org/1999/xlink" width="605" zoomAndPan="magnify" viewBox="0 0 453.75 471.749986" height="629" preserveAspectRatio="xMidYMid meet" version="1.0"><defs><clipPath id="972e7c1e28"><path d="M 0 0.00390625 L 453.5 0.00390625 L 453.5 471 L 0 471 Z M 0 0.00390625 " clip-rule="nonzero"/></clipPath><clipPath id="d0f7b1463f"><path d="M 125.792969 0.00390625 L 453.597656 116.257812 L 327.824219 470.910156 L 0.0195312 354.65625 Z M 125.792969 0.00390625 " clip-rule="nonzero"/></clipPath><clipPath id="675a321cf5"><path d="M 11 90 L 447 90 L 447 404 L 11 404 Z M 11 90 " clip-rule="nonzero"/></clipPath><clipPath id="f32af4ec2c"><path d="M 125.792969 0.00390625 L 453.597656 116.257812 L 327.824219 470.910156 L 0.0195312 354.65625 Z M 125.792969 0.00390625 " clip-rule="nonzero"/></clipPath><clipPath id="6f2ad0257f"><path d="M 453.410156 116.191406 L 125.605469 -0.0625 L -0.167969 354.589844 L 327.636719 470.84375 Z M 453.410156 116.191406 " clip-rule="nonzero"/></clipPath><clipPath id="47670c23b5"><path d="M 453.410156 116.191406 L 125.605469 -0.0625 L -0.167969 354.589844 L 327.636719 470.84375 Z M 453.410156 116.191406 " clip-rule="nonzero"/></clipPath><clipPath id="c444b9ab0a"><path d="M 453.410156 116.191406 L 125.605469 -0.0625 L -0.167969 354.589844 L 327.636719 470.84375 Z M 453.410156 116.191406 " clip-rule="nonzero"/></clipPath><clipPath id="1656b98496"><path d="M 22 98 L 433 98 L 433 386 L 22 386 Z M 22 98 " clip-rule="nonzero"/></clipPath><clipPath id="9262a020e4"><path d="M 125.792969 0.00390625 L 453.597656 116.257812 L 327.824219 470.910156 L 0.0195312 354.65625 Z M 125.792969 0.00390625 " clip-rule="nonzero"/></clipPath><clipPath id="7c375b2592"><path d="M 453.410156 116.191406 L 125.605469 -0.0625 L -0.167969 354.589844 L 327.636719 470.84375 Z M 453.410156 116.191406 " clip-rule="nonzero"/></clipPath><clipPath id="c55c34bafd"><path d="M 453.410156 116.191406 L 125.605469 -0.0625 L -0.167969 354.589844 L 327.636719 470.84375 Z M 453.410156 116.191406 " clip-rule="nonzero"/></clipPath><clipPath id="05898a60e6"><path d="M 453.410156 116.191406 L 125.605469 -0.0625 L -0.167969 354.589844 L 327.636719 470.84375 Z M 453.410156 116.191406 " clip-rule="nonzero"/></clipPath><clipPath id="fbbdf8e886"><rect x="0" width="454" y="0" height="471"/></clipPath></defs><g clip-path="url(#972e7c1e28)"><g clip-path="url(#d0f7b1463f)"><g transform="matrix(1, 0, 0, 1, -0, -0.000000000000023589)"><g clip-path="url(#fbbdf8e886)"><g clip-path="url(#675a321cf5)"><g clip-path="url(#f32af4ec2c)"><g clip-path="url(#6f2ad0257f)"><g clip-path="url(#47670c23b5)"><g clip-path="url(#c444b9ab0a)"><path fill="#000000" d="M 39.007812 337.472656 L 22.5 322.195312 L 62.796875 278.574219 L 84.59375 298.710938 C 100.367188 313.324219 124.421875 323.222656 148.859375 325.449219 C 171.261719 327.511719 194.433594 323.085938 210.714844 306.949219 C 225.625 292.183594 233.996094 268.574219 234.011719 234.667969 C 233.925781 179.222656 250.710938 146.4375 271.359375 126.855469 C 292.371094 106.921875 318.796875 99.460938 343.175781 98.441406 C 376.042969 97.128906 404.339844 107.570312 404.339844 107.570312 L 432.234375 117.78125 L 428.179688 128.988281 L 418.46875 125.464844 C 418.46875 125.464844 390.097656 115.003906 357.277344 116.410156 C 332.894531 117.429688 306.472656 124.890625 285.457031 144.824219 C 264.789062 164.476562 248.027344 197.191406 248.113281 252.636719 C 248.167969 286.566406 239.796875 310.175781 224.816406 324.917969 C 208.535156 341.054688 185.363281 345.480469 162.960938 343.417969 C 138.59375 341.21875 114.5625 331.246094 98.691406 316.675781 L 76.898438 296.542969 Z M 435.527344 131.675781 L 446.386719 135.609375 L 426.042969 191.378906 L 398.148438 181.164062 C 398.148438 181.164062 380.417969 174.796875 359.8125 175.625 C 348.609375 176.082031 336.09375 178.648438 326.40625 187.777344 C 314.152344 199.378906 307.496094 219.734375 307.578125 252.460938 C 307.660156 306.777344 290.558594 343.402344 266.714844 367.003906 C 237.777344 395.640625 197.507812 406.007812 157.695312 402.359375 C 126.539062 399.527344 95.980469 387.964844 72.460938 371.328125 C 59.902344 364.699219 48.589844 356.820312 39.003906 347.941406 L 11.375 322.4375 L 62.359375 267.304688 L 89.988281 292.8125 C 104.605469 306.371094 127.019531 315.445312 149.585938 317.492188 C 169.734375 319.320312 190.535156 315.664062 205.175781 301.203125 C 218.933594 287.636719 226.144531 265.707031 226.085938 234.515625 C 226.035156 176.023438 244.097656 141.675781 265.941406 120.988281 C 288.425781 99.644531 316.6875 91.542969 342.800781 90.414062 C 377.320312 89.207031 407.050781 100.152344 407.050781 100.152344 C 407.050781 100.152344 442.292969 113.054688 442.292969 113.054688 Z M 435.527344 131.675781 " fill-opacity="1" fill-rule="evenodd"/></g></g></g></g></g><g clip-path="url(#1656b98496)"><g clip-path="url(#9262a020e4)"><g clip-path="url(#7c375b2592)"><g clip-path="url(#c55c34bafd)"><g clip-path="url(#05898a60e6)"><path fill="#ffe468" d="M 411.890625 173.554688 L 432.234375 117.78125 L 404.339844 107.570312 C 404.339844 107.570312 375.972656 97.105469 343.152344 98.515625 C 318.769531 99.53125 292.347656 106.996094 271.332031 126.929688 C 250.660156 146.578125 233.898438 179.296875 233.984375 234.742188 C 234.042969 268.667969 225.667969 292.28125 210.6875 307.023438 C 194.40625 323.15625 171.238281 327.585938 148.835938 325.519531 C 124.46875 323.320312 100.4375 313.351562 84.566406 298.78125 L 62.769531 278.648438 L 22.476562 322.269531 L 44.273438 342.402344 C 68.808594 365.039062 105.695312 381.257812 143.492188 384.675781 C 183.234375 388.300781 223.53125 377.863281 252.511719 349.320312 C 276.429688 325.746094 293.457031 289.097656 293.375 234.78125 C 293.292969 202.050781 300.046875 181.652344 312.203125 170.097656 C 321.914062 160.894531 334.40625 158.398438 345.613281 157.941406 C 366.144531 157.089844 383.949219 163.484375 383.949219 163.484375 Z M 411.890625 173.554688 " fill-opacity="1" fill-rule="evenodd"/></g></g></g></g></g></g></g></g></g></svg>